M48
; DRILL file {KiCad (5.1.0)-1} date 6/26/2019 3:54:46 PM
; FORMAT={-:-/ absolute / metric / decimal}
; #@! TF.CreationDate,2019-06-26T15:54:46-05:00
; #@! TF.GenerationSoftware,Kicad,Pcbnew,(5.1.0)-1
; #@! TF.FileFunction,Plated,1,2,PTH
FMAT,2
METRIC
T1C0.750
T2C0.800
T3C1.020
T4C1.400
%
G90
G05
T1
X103.64Y-94.16
X104.91Y-94.16
X106.18Y-94.16
T2
X110.17Y-65.08
X115.25Y-65.08
X118.4Y-69.13
X123.4Y-69.13
X76.2Y-66.04
X78.2Y-66.04
X80.2Y-66.04
X82.2Y-66.04
X103.23Y-88.88
X108.23Y-88.88
X113.03Y-86.36
X118.03Y-86.36
X114.33Y-73.18
X119.33Y-73.18
X106.1Y-73.18
X111.18Y-73.18
X86.32Y-94.34
X91.4Y-94.34
X86.32Y-90.29
X91.4Y-90.29
X114.33Y-77.23
X119.33Y-77.23
X74.67Y-85.73
X74.67Y-88.27
X74.67Y-90.81
X74.67Y-93.35
X82.29Y-85.73
X82.29Y-88.27
X82.29Y-90.81
X82.29Y-93.35
X88.82Y-65.18
X88.82Y-67.72
X88.82Y-70.26
X88.82Y-72.8
X96.44Y-65.18
X96.44Y-67.72
X96.44Y-70.26
X96.44Y-72.8
X95.0Y-94.34
X100.08Y-94.34
X95.0Y-90.29
X100.08Y-90.29
X106.1Y-77.23
X111.18Y-77.23
X110.17Y-69.13
X115.25Y-69.13
X96.12Y-84.83
X101.2Y-84.83
X113.03Y-81.28
X118.03Y-81.28
X74.77Y-73.93
X74.77Y-76.47
X74.77Y-79.01
X74.77Y-81.55
X82.39Y-73.93
X82.39Y-76.47
X82.39Y-79.01
X82.39Y-81.55
X104.8Y-84.83
X109.88Y-84.83
X118.85Y-65.08
X123.93Y-65.08
T3
X86.72Y-83.94
X89.26Y-83.94
X91.8Y-83.94
X100.77Y-66.63
X103.31Y-66.63
X105.85Y-66.63
X96.7Y-78.48
X99.24Y-78.48
X101.78Y-78.48
T4
X86.62Y-77.64
X91.7Y-77.64
T0
M30
