G04 #@! TF.GenerationSoftware,KiCad,Pcbnew,(5.1.0)-1*
G04 #@! TF.CreationDate,2019-06-26T15:54:14-05:00*
G04 #@! TF.ProjectId,Audio Cassette Interface,41756469-6f20-4436-9173-736574746520,rev?*
G04 #@! TF.SameCoordinates,Original*
G04 #@! TF.FileFunction,Copper,L1,Top*
G04 #@! TF.FilePolarity,Positive*
%FSLAX46Y46*%
G04 Gerber Fmt 4.6, Leading zero omitted, Abs format (unit mm)*
G04 Created by KiCad (PCBNEW (5.1.0)-1) date 2019-06-26 15:54:14*
%MOMM*%
%LPD*%
G04 APERTURE LIST*
%ADD10O,2.400000X1.600000*%
%ADD11R,2.400000X1.600000*%
%ADD12O,1.600000X1.600000*%
%ADD13C,1.600000*%
%ADD14R,1.050000X1.500000*%
%ADD15O,1.050000X1.500000*%
%ADD16O,1.730000X2.030000*%
%ADD17R,1.730000X2.030000*%
%ADD18O,1.200000X1.800000*%
%ADD19C,0.100000*%
%ADD20C,1.200000*%
%ADD21O,2.800000X2.800000*%
%ADD22R,2.800000X2.800000*%
G04 APERTURE END LIST*
D10*
X82290000Y-85730000D03*
X74670000Y-93350000D03*
X82290000Y-88270000D03*
X74670000Y-90810000D03*
X82290000Y-90810000D03*
X74670000Y-88270000D03*
X82290000Y-93350000D03*
D11*
X74670000Y-85730000D03*
D10*
X82390000Y-73930000D03*
X74770000Y-81550000D03*
X82390000Y-76470000D03*
X74770000Y-79010000D03*
X82390000Y-79010000D03*
X74770000Y-76470000D03*
X82390000Y-81550000D03*
D11*
X74770000Y-73930000D03*
D10*
X96440000Y-65180000D03*
X88820000Y-72800000D03*
X96440000Y-67720000D03*
X88820000Y-70260000D03*
X96440000Y-70260000D03*
X88820000Y-67720000D03*
X96440000Y-72800000D03*
D11*
X88820000Y-65180000D03*
D12*
X100080000Y-94340000D03*
D13*
X95000000Y-94340000D03*
D12*
X109880000Y-84830000D03*
D13*
X104800000Y-84830000D03*
D12*
X100080000Y-90290000D03*
D13*
X95000000Y-90290000D03*
D12*
X111180000Y-77230000D03*
D13*
X106100000Y-77230000D03*
D12*
X123930000Y-65080000D03*
D13*
X118850000Y-65080000D03*
D12*
X111180000Y-73180000D03*
D13*
X106100000Y-73180000D03*
D12*
X115250000Y-69130000D03*
D13*
X110170000Y-69130000D03*
D12*
X115250000Y-65080000D03*
D13*
X110170000Y-65080000D03*
D12*
X91400000Y-94340000D03*
D13*
X86320000Y-94340000D03*
D12*
X101200000Y-84830000D03*
D13*
X96120000Y-84830000D03*
D12*
X91400000Y-90290000D03*
D13*
X86320000Y-90290000D03*
D14*
X103640000Y-94160000D03*
D15*
X106180000Y-94160000D03*
X104910000Y-94160000D03*
D16*
X101780000Y-78480000D03*
X99240000Y-78480000D03*
D17*
X96700000Y-78480000D03*
D16*
X91800000Y-83940000D03*
X89260000Y-83940000D03*
D17*
X86720000Y-83940000D03*
D16*
X105850000Y-66630000D03*
X103310000Y-66630000D03*
D17*
X100770000Y-66630000D03*
D18*
X82200000Y-66040000D03*
X80200000Y-66040000D03*
X78200000Y-66040000D03*
D19*
G36*
X76574505Y-65141204D02*
G01*
X76598773Y-65144804D01*
X76622572Y-65150765D01*
X76645671Y-65159030D01*
X76667850Y-65169520D01*
X76688893Y-65182132D01*
X76708599Y-65196747D01*
X76726777Y-65213223D01*
X76743253Y-65231401D01*
X76757868Y-65251107D01*
X76770480Y-65272150D01*
X76780970Y-65294329D01*
X76789235Y-65317428D01*
X76795196Y-65341227D01*
X76798796Y-65365495D01*
X76800000Y-65389999D01*
X76800000Y-66690001D01*
X76798796Y-66714505D01*
X76795196Y-66738773D01*
X76789235Y-66762572D01*
X76780970Y-66785671D01*
X76770480Y-66807850D01*
X76757868Y-66828893D01*
X76743253Y-66848599D01*
X76726777Y-66866777D01*
X76708599Y-66883253D01*
X76688893Y-66897868D01*
X76667850Y-66910480D01*
X76645671Y-66920970D01*
X76622572Y-66929235D01*
X76598773Y-66935196D01*
X76574505Y-66938796D01*
X76550001Y-66940000D01*
X75849999Y-66940000D01*
X75825495Y-66938796D01*
X75801227Y-66935196D01*
X75777428Y-66929235D01*
X75754329Y-66920970D01*
X75732150Y-66910480D01*
X75711107Y-66897868D01*
X75691401Y-66883253D01*
X75673223Y-66866777D01*
X75656747Y-66848599D01*
X75642132Y-66828893D01*
X75629520Y-66807850D01*
X75619030Y-66785671D01*
X75610765Y-66762572D01*
X75604804Y-66738773D01*
X75601204Y-66714505D01*
X75600000Y-66690001D01*
X75600000Y-65389999D01*
X75601204Y-65365495D01*
X75604804Y-65341227D01*
X75610765Y-65317428D01*
X75619030Y-65294329D01*
X75629520Y-65272150D01*
X75642132Y-65251107D01*
X75656747Y-65231401D01*
X75673223Y-65213223D01*
X75691401Y-65196747D01*
X75711107Y-65182132D01*
X75732150Y-65169520D01*
X75754329Y-65159030D01*
X75777428Y-65150765D01*
X75801227Y-65144804D01*
X75825495Y-65141204D01*
X75849999Y-65140000D01*
X76550001Y-65140000D01*
X76574505Y-65141204D01*
X76574505Y-65141204D01*
G37*
D20*
X76200000Y-66040000D03*
D21*
X91700000Y-77639899D03*
D22*
X86620000Y-77639899D03*
D13*
X108230000Y-88880000D03*
X103230000Y-88880000D03*
X119330000Y-77230000D03*
X114330000Y-77230000D03*
X118030000Y-86360000D03*
X113030000Y-86360000D03*
X119330000Y-73180000D03*
X114330000Y-73180000D03*
X123400000Y-69130000D03*
X118400000Y-69130000D03*
X118030000Y-81280000D03*
X113030000Y-81280000D03*
M02*
