G04 #@! TF.GenerationSoftware,KiCad,Pcbnew,(5.1.0)-1*
G04 #@! TF.CreationDate,2019-06-26T15:54:14-05:00*
G04 #@! TF.ProjectId,Audio Cassette Interface,41756469-6f20-4436-9173-736574746520,rev?*
G04 #@! TF.SameCoordinates,Original*
G04 #@! TF.FileFunction,Soldermask,Bot*
G04 #@! TF.FilePolarity,Negative*
%FSLAX46Y46*%
G04 Gerber Fmt 4.6, Leading zero omitted, Abs format (unit mm)*
G04 Created by KiCad (PCBNEW (5.1.0)-1) date 2019-06-26 15:54:14*
%MOMM*%
%LPD*%
G04 APERTURE LIST*
%ADD10C,0.100000*%
G04 APERTURE END LIST*
D10*
G36*
X100246823Y-93501313D02*
G01*
X100407242Y-93549976D01*
X100525980Y-93613443D01*
X100555078Y-93628996D01*
X100684659Y-93735341D01*
X100791004Y-93864922D01*
X100791005Y-93864924D01*
X100870024Y-94012758D01*
X100918687Y-94173177D01*
X100935117Y-94340000D01*
X100918687Y-94506823D01*
X100870024Y-94667242D01*
X100829477Y-94743100D01*
X100791004Y-94815078D01*
X100684659Y-94944659D01*
X100555078Y-95051004D01*
X100555076Y-95051005D01*
X100407242Y-95130024D01*
X100246823Y-95178687D01*
X100121804Y-95191000D01*
X100038196Y-95191000D01*
X99913177Y-95178687D01*
X99752758Y-95130024D01*
X99604924Y-95051005D01*
X99604922Y-95051004D01*
X99475341Y-94944659D01*
X99368996Y-94815078D01*
X99330523Y-94743100D01*
X99289976Y-94667242D01*
X99241313Y-94506823D01*
X99224883Y-94340000D01*
X99241313Y-94173177D01*
X99289976Y-94012758D01*
X99368995Y-93864924D01*
X99368996Y-93864922D01*
X99475341Y-93735341D01*
X99604922Y-93628996D01*
X99634020Y-93613443D01*
X99752758Y-93549976D01*
X99913177Y-93501313D01*
X100038196Y-93489000D01*
X100121804Y-93489000D01*
X100246823Y-93501313D01*
X100246823Y-93501313D01*
G37*
G36*
X95248228Y-93521703D02*
G01*
X95403100Y-93585853D01*
X95542481Y-93678985D01*
X95661015Y-93797519D01*
X95754147Y-93936900D01*
X95818297Y-94091772D01*
X95851000Y-94256184D01*
X95851000Y-94423816D01*
X95818297Y-94588228D01*
X95754147Y-94743100D01*
X95661015Y-94882481D01*
X95542481Y-95001015D01*
X95403100Y-95094147D01*
X95248228Y-95158297D01*
X95083816Y-95191000D01*
X94916184Y-95191000D01*
X94751772Y-95158297D01*
X94596900Y-95094147D01*
X94457519Y-95001015D01*
X94338985Y-94882481D01*
X94245853Y-94743100D01*
X94181703Y-94588228D01*
X94149000Y-94423816D01*
X94149000Y-94256184D01*
X94181703Y-94091772D01*
X94245853Y-93936900D01*
X94338985Y-93797519D01*
X94457519Y-93678985D01*
X94596900Y-93585853D01*
X94751772Y-93521703D01*
X94916184Y-93489000D01*
X95083816Y-93489000D01*
X95248228Y-93521703D01*
X95248228Y-93521703D01*
G37*
G36*
X86568228Y-93521703D02*
G01*
X86723100Y-93585853D01*
X86862481Y-93678985D01*
X86981015Y-93797519D01*
X87074147Y-93936900D01*
X87138297Y-94091772D01*
X87171000Y-94256184D01*
X87171000Y-94423816D01*
X87138297Y-94588228D01*
X87074147Y-94743100D01*
X86981015Y-94882481D01*
X86862481Y-95001015D01*
X86723100Y-95094147D01*
X86568228Y-95158297D01*
X86403816Y-95191000D01*
X86236184Y-95191000D01*
X86071772Y-95158297D01*
X85916900Y-95094147D01*
X85777519Y-95001015D01*
X85658985Y-94882481D01*
X85565853Y-94743100D01*
X85501703Y-94588228D01*
X85469000Y-94423816D01*
X85469000Y-94256184D01*
X85501703Y-94091772D01*
X85565853Y-93936900D01*
X85658985Y-93797519D01*
X85777519Y-93678985D01*
X85916900Y-93585853D01*
X86071772Y-93521703D01*
X86236184Y-93489000D01*
X86403816Y-93489000D01*
X86568228Y-93521703D01*
X86568228Y-93521703D01*
G37*
G36*
X91566823Y-93501313D02*
G01*
X91727242Y-93549976D01*
X91845980Y-93613443D01*
X91875078Y-93628996D01*
X92004659Y-93735341D01*
X92111004Y-93864922D01*
X92111005Y-93864924D01*
X92190024Y-94012758D01*
X92238687Y-94173177D01*
X92255117Y-94340000D01*
X92238687Y-94506823D01*
X92190024Y-94667242D01*
X92149477Y-94743100D01*
X92111004Y-94815078D01*
X92004659Y-94944659D01*
X91875078Y-95051004D01*
X91875076Y-95051005D01*
X91727242Y-95130024D01*
X91566823Y-95178687D01*
X91441804Y-95191000D01*
X91358196Y-95191000D01*
X91233177Y-95178687D01*
X91072758Y-95130024D01*
X90924924Y-95051005D01*
X90924922Y-95051004D01*
X90795341Y-94944659D01*
X90688996Y-94815078D01*
X90650523Y-94743100D01*
X90609976Y-94667242D01*
X90561313Y-94506823D01*
X90544883Y-94340000D01*
X90561313Y-94173177D01*
X90609976Y-94012758D01*
X90688995Y-93864924D01*
X90688996Y-93864922D01*
X90795341Y-93735341D01*
X90924922Y-93628996D01*
X90954020Y-93613443D01*
X91072758Y-93549976D01*
X91233177Y-93501313D01*
X91358196Y-93489000D01*
X91441804Y-93489000D01*
X91566823Y-93501313D01*
X91566823Y-93501313D01*
G37*
G36*
X106292915Y-93367334D02*
G01*
X106401491Y-93400271D01*
X106401494Y-93400272D01*
X106437600Y-93419571D01*
X106501556Y-93453756D01*
X106589264Y-93525736D01*
X106661244Y-93613443D01*
X106695343Y-93677239D01*
X106714728Y-93713505D01*
X106714729Y-93713508D01*
X106747666Y-93822084D01*
X106756000Y-93906702D01*
X106756000Y-94413297D01*
X106747666Y-94497916D01*
X106715252Y-94604767D01*
X106714728Y-94606495D01*
X106704761Y-94625141D01*
X106661244Y-94706557D01*
X106589264Y-94794264D01*
X106501557Y-94866244D01*
X106437601Y-94900429D01*
X106401495Y-94919728D01*
X106401492Y-94919729D01*
X106292916Y-94952666D01*
X106180000Y-94963787D01*
X106067085Y-94952666D01*
X105958509Y-94919729D01*
X105958506Y-94919728D01*
X105922400Y-94900429D01*
X105858444Y-94866244D01*
X105770737Y-94794264D01*
X105698757Y-94706557D01*
X105655239Y-94625141D01*
X105641625Y-94604766D01*
X105624298Y-94587439D01*
X105603924Y-94573826D01*
X105581285Y-94564448D01*
X105557252Y-94559668D01*
X105532748Y-94559668D01*
X105508715Y-94564448D01*
X105486076Y-94573826D01*
X105465701Y-94587440D01*
X105448374Y-94604767D01*
X105434761Y-94625141D01*
X105391244Y-94706557D01*
X105319264Y-94794264D01*
X105231557Y-94866244D01*
X105167601Y-94900429D01*
X105131495Y-94919728D01*
X105131492Y-94919729D01*
X105022916Y-94952666D01*
X104910000Y-94963787D01*
X104797085Y-94952666D01*
X104688509Y-94919729D01*
X104688506Y-94919728D01*
X104652400Y-94900429D01*
X104588444Y-94866244D01*
X104500737Y-94794264D01*
X104437622Y-94717359D01*
X104420297Y-94700034D01*
X104399923Y-94686420D01*
X104377284Y-94677043D01*
X104353250Y-94672263D01*
X104328746Y-94672263D01*
X104304713Y-94677044D01*
X104282074Y-94686421D01*
X104261700Y-94700035D01*
X104244373Y-94717362D01*
X104230759Y-94737736D01*
X104221382Y-94760375D01*
X104216000Y-94796660D01*
X104216000Y-94961000D01*
X103064000Y-94961000D01*
X103064000Y-93359000D01*
X104216000Y-93359000D01*
X104216000Y-93523341D01*
X104218402Y-93547727D01*
X104225515Y-93571176D01*
X104237066Y-93592787D01*
X104252611Y-93611729D01*
X104271553Y-93627274D01*
X104293164Y-93638825D01*
X104316613Y-93645938D01*
X104340999Y-93648340D01*
X104365385Y-93645938D01*
X104388834Y-93638825D01*
X104410445Y-93627274D01*
X104429387Y-93611729D01*
X104437608Y-93602657D01*
X104500736Y-93525736D01*
X104588443Y-93453756D01*
X104652399Y-93419571D01*
X104688505Y-93400272D01*
X104688508Y-93400271D01*
X104797084Y-93367334D01*
X104910000Y-93356213D01*
X105022915Y-93367334D01*
X105131491Y-93400271D01*
X105131494Y-93400272D01*
X105167600Y-93419571D01*
X105231556Y-93453756D01*
X105319264Y-93525736D01*
X105391244Y-93613443D01*
X105426276Y-93678985D01*
X105434761Y-93694859D01*
X105448375Y-93715234D01*
X105465702Y-93732561D01*
X105486076Y-93746174D01*
X105508715Y-93755552D01*
X105532748Y-93760332D01*
X105557252Y-93760332D01*
X105581285Y-93755552D01*
X105603924Y-93746174D01*
X105624299Y-93732560D01*
X105641626Y-93715233D01*
X105655239Y-93694860D01*
X105698756Y-93613444D01*
X105770736Y-93525736D01*
X105858443Y-93453756D01*
X105922399Y-93419571D01*
X105958505Y-93400272D01*
X105958508Y-93400271D01*
X106067084Y-93367334D01*
X106180000Y-93356213D01*
X106292915Y-93367334D01*
X106292915Y-93367334D01*
G37*
G36*
X82856823Y-92511313D02*
G01*
X83017242Y-92559976D01*
X83149906Y-92630886D01*
X83165078Y-92638996D01*
X83294659Y-92745341D01*
X83401004Y-92874922D01*
X83401005Y-92874924D01*
X83480024Y-93022758D01*
X83528687Y-93183177D01*
X83545117Y-93350000D01*
X83528687Y-93516823D01*
X83480024Y-93677242D01*
X83415734Y-93797520D01*
X83401004Y-93825078D01*
X83294659Y-93954659D01*
X83165078Y-94061004D01*
X83165076Y-94061005D01*
X83017242Y-94140024D01*
X82856823Y-94188687D01*
X82731804Y-94201000D01*
X81848196Y-94201000D01*
X81723177Y-94188687D01*
X81562758Y-94140024D01*
X81414924Y-94061005D01*
X81414922Y-94061004D01*
X81285341Y-93954659D01*
X81178996Y-93825078D01*
X81164266Y-93797520D01*
X81099976Y-93677242D01*
X81051313Y-93516823D01*
X81034883Y-93350000D01*
X81051313Y-93183177D01*
X81099976Y-93022758D01*
X81178995Y-92874924D01*
X81178996Y-92874922D01*
X81285341Y-92745341D01*
X81414922Y-92638996D01*
X81430094Y-92630886D01*
X81562758Y-92559976D01*
X81723177Y-92511313D01*
X81848196Y-92499000D01*
X82731804Y-92499000D01*
X82856823Y-92511313D01*
X82856823Y-92511313D01*
G37*
G36*
X75236823Y-92511313D02*
G01*
X75397242Y-92559976D01*
X75529906Y-92630886D01*
X75545078Y-92638996D01*
X75674659Y-92745341D01*
X75781004Y-92874922D01*
X75781005Y-92874924D01*
X75860024Y-93022758D01*
X75908687Y-93183177D01*
X75925117Y-93350000D01*
X75908687Y-93516823D01*
X75860024Y-93677242D01*
X75795734Y-93797520D01*
X75781004Y-93825078D01*
X75674659Y-93954659D01*
X75545078Y-94061004D01*
X75545076Y-94061005D01*
X75397242Y-94140024D01*
X75236823Y-94188687D01*
X75111804Y-94201000D01*
X74228196Y-94201000D01*
X74103177Y-94188687D01*
X73942758Y-94140024D01*
X73794924Y-94061005D01*
X73794922Y-94061004D01*
X73665341Y-93954659D01*
X73558996Y-93825078D01*
X73544266Y-93797520D01*
X73479976Y-93677242D01*
X73431313Y-93516823D01*
X73414883Y-93350000D01*
X73431313Y-93183177D01*
X73479976Y-93022758D01*
X73558995Y-92874924D01*
X73558996Y-92874922D01*
X73665341Y-92745341D01*
X73794922Y-92638996D01*
X73810094Y-92630886D01*
X73942758Y-92559976D01*
X74103177Y-92511313D01*
X74228196Y-92499000D01*
X75111804Y-92499000D01*
X75236823Y-92511313D01*
X75236823Y-92511313D01*
G37*
G36*
X75236823Y-89971313D02*
G01*
X75397242Y-90019976D01*
X75438019Y-90041772D01*
X75545078Y-90098996D01*
X75674659Y-90205341D01*
X75781004Y-90334922D01*
X75781005Y-90334924D01*
X75860024Y-90482758D01*
X75908687Y-90643177D01*
X75925117Y-90810000D01*
X75908687Y-90976823D01*
X75901351Y-91001005D01*
X75862620Y-91128686D01*
X75860024Y-91137242D01*
X75858015Y-91141000D01*
X75781004Y-91285078D01*
X75674659Y-91414659D01*
X75545078Y-91521004D01*
X75545076Y-91521005D01*
X75397242Y-91600024D01*
X75236823Y-91648687D01*
X75111804Y-91661000D01*
X74228196Y-91661000D01*
X74103177Y-91648687D01*
X73942758Y-91600024D01*
X73794924Y-91521005D01*
X73794922Y-91521004D01*
X73665341Y-91414659D01*
X73558996Y-91285078D01*
X73481985Y-91141000D01*
X73479976Y-91137242D01*
X73477381Y-91128686D01*
X73438649Y-91001005D01*
X73431313Y-90976823D01*
X73414883Y-90810000D01*
X73431313Y-90643177D01*
X73479976Y-90482758D01*
X73558995Y-90334924D01*
X73558996Y-90334922D01*
X73665341Y-90205341D01*
X73794922Y-90098996D01*
X73901981Y-90041772D01*
X73942758Y-90019976D01*
X74103177Y-89971313D01*
X74228196Y-89959000D01*
X75111804Y-89959000D01*
X75236823Y-89971313D01*
X75236823Y-89971313D01*
G37*
G36*
X82856823Y-89971313D02*
G01*
X83017242Y-90019976D01*
X83058019Y-90041772D01*
X83165078Y-90098996D01*
X83294659Y-90205341D01*
X83401004Y-90334922D01*
X83401005Y-90334924D01*
X83480024Y-90482758D01*
X83528687Y-90643177D01*
X83545117Y-90810000D01*
X83528687Y-90976823D01*
X83521351Y-91001005D01*
X83482620Y-91128686D01*
X83480024Y-91137242D01*
X83478015Y-91141000D01*
X83401004Y-91285078D01*
X83294659Y-91414659D01*
X83165078Y-91521004D01*
X83165076Y-91521005D01*
X83017242Y-91600024D01*
X82856823Y-91648687D01*
X82731804Y-91661000D01*
X81848196Y-91661000D01*
X81723177Y-91648687D01*
X81562758Y-91600024D01*
X81414924Y-91521005D01*
X81414922Y-91521004D01*
X81285341Y-91414659D01*
X81178996Y-91285078D01*
X81101985Y-91141000D01*
X81099976Y-91137242D01*
X81097381Y-91128686D01*
X81058649Y-91001005D01*
X81051313Y-90976823D01*
X81034883Y-90810000D01*
X81051313Y-90643177D01*
X81099976Y-90482758D01*
X81178995Y-90334924D01*
X81178996Y-90334922D01*
X81285341Y-90205341D01*
X81414922Y-90098996D01*
X81521981Y-90041772D01*
X81562758Y-90019976D01*
X81723177Y-89971313D01*
X81848196Y-89959000D01*
X82731804Y-89959000D01*
X82856823Y-89971313D01*
X82856823Y-89971313D01*
G37*
G36*
X100246823Y-89451313D02*
G01*
X100407242Y-89499976D01*
X100474361Y-89535852D01*
X100555078Y-89578996D01*
X100684659Y-89685341D01*
X100791004Y-89814922D01*
X100791005Y-89814924D01*
X100870024Y-89962758D01*
X100870025Y-89962761D01*
X100879083Y-89992620D01*
X100918687Y-90123177D01*
X100935117Y-90290000D01*
X100918687Y-90456823D01*
X100870024Y-90617242D01*
X100829477Y-90693100D01*
X100791004Y-90765078D01*
X100684659Y-90894659D01*
X100555078Y-91001004D01*
X100555076Y-91001005D01*
X100407242Y-91080024D01*
X100246823Y-91128687D01*
X100121804Y-91141000D01*
X100038196Y-91141000D01*
X99913177Y-91128687D01*
X99752758Y-91080024D01*
X99604924Y-91001005D01*
X99604922Y-91001004D01*
X99475341Y-90894659D01*
X99368996Y-90765078D01*
X99330523Y-90693100D01*
X99289976Y-90617242D01*
X99241313Y-90456823D01*
X99224883Y-90290000D01*
X99241313Y-90123177D01*
X99280917Y-89992620D01*
X99289975Y-89962761D01*
X99289976Y-89962758D01*
X99368995Y-89814924D01*
X99368996Y-89814922D01*
X99475341Y-89685341D01*
X99604922Y-89578996D01*
X99685639Y-89535852D01*
X99752758Y-89499976D01*
X99913177Y-89451313D01*
X100038196Y-89439000D01*
X100121804Y-89439000D01*
X100246823Y-89451313D01*
X100246823Y-89451313D01*
G37*
G36*
X91566823Y-89451313D02*
G01*
X91727242Y-89499976D01*
X91794361Y-89535852D01*
X91875078Y-89578996D01*
X92004659Y-89685341D01*
X92111004Y-89814922D01*
X92111005Y-89814924D01*
X92190024Y-89962758D01*
X92190025Y-89962761D01*
X92199083Y-89992620D01*
X92238687Y-90123177D01*
X92255117Y-90290000D01*
X92238687Y-90456823D01*
X92190024Y-90617242D01*
X92149477Y-90693100D01*
X92111004Y-90765078D01*
X92004659Y-90894659D01*
X91875078Y-91001004D01*
X91875076Y-91001005D01*
X91727242Y-91080024D01*
X91566823Y-91128687D01*
X91441804Y-91141000D01*
X91358196Y-91141000D01*
X91233177Y-91128687D01*
X91072758Y-91080024D01*
X90924924Y-91001005D01*
X90924922Y-91001004D01*
X90795341Y-90894659D01*
X90688996Y-90765078D01*
X90650523Y-90693100D01*
X90609976Y-90617242D01*
X90561313Y-90456823D01*
X90544883Y-90290000D01*
X90561313Y-90123177D01*
X90600917Y-89992620D01*
X90609975Y-89962761D01*
X90609976Y-89962758D01*
X90688995Y-89814924D01*
X90688996Y-89814922D01*
X90795341Y-89685341D01*
X90924922Y-89578996D01*
X91005639Y-89535852D01*
X91072758Y-89499976D01*
X91233177Y-89451313D01*
X91358196Y-89439000D01*
X91441804Y-89439000D01*
X91566823Y-89451313D01*
X91566823Y-89451313D01*
G37*
G36*
X86568228Y-89471703D02*
G01*
X86723100Y-89535853D01*
X86862481Y-89628985D01*
X86981015Y-89747519D01*
X87074147Y-89886900D01*
X87138297Y-90041772D01*
X87171000Y-90206184D01*
X87171000Y-90373816D01*
X87138297Y-90538228D01*
X87074147Y-90693100D01*
X86981015Y-90832481D01*
X86862481Y-90951015D01*
X86723100Y-91044147D01*
X86568228Y-91108297D01*
X86403816Y-91141000D01*
X86236184Y-91141000D01*
X86071772Y-91108297D01*
X85916900Y-91044147D01*
X85777519Y-90951015D01*
X85658985Y-90832481D01*
X85565853Y-90693100D01*
X85501703Y-90538228D01*
X85469000Y-90373816D01*
X85469000Y-90206184D01*
X85501703Y-90041772D01*
X85565853Y-89886900D01*
X85658985Y-89747519D01*
X85777519Y-89628985D01*
X85916900Y-89535853D01*
X86071772Y-89471703D01*
X86236184Y-89439000D01*
X86403816Y-89439000D01*
X86568228Y-89471703D01*
X86568228Y-89471703D01*
G37*
G36*
X95248228Y-89471703D02*
G01*
X95403100Y-89535853D01*
X95542481Y-89628985D01*
X95661015Y-89747519D01*
X95754147Y-89886900D01*
X95818297Y-90041772D01*
X95851000Y-90206184D01*
X95851000Y-90373816D01*
X95818297Y-90538228D01*
X95754147Y-90693100D01*
X95661015Y-90832481D01*
X95542481Y-90951015D01*
X95403100Y-91044147D01*
X95248228Y-91108297D01*
X95083816Y-91141000D01*
X94916184Y-91141000D01*
X94751772Y-91108297D01*
X94596900Y-91044147D01*
X94457519Y-90951015D01*
X94338985Y-90832481D01*
X94245853Y-90693100D01*
X94181703Y-90538228D01*
X94149000Y-90373816D01*
X94149000Y-90206184D01*
X94181703Y-90041772D01*
X94245853Y-89886900D01*
X94338985Y-89747519D01*
X94457519Y-89628985D01*
X94596900Y-89535853D01*
X94751772Y-89471703D01*
X94916184Y-89439000D01*
X95083816Y-89439000D01*
X95248228Y-89471703D01*
X95248228Y-89471703D01*
G37*
G36*
X108478228Y-88061703D02*
G01*
X108633100Y-88125853D01*
X108772481Y-88218985D01*
X108891015Y-88337519D01*
X108984147Y-88476900D01*
X109048297Y-88631772D01*
X109081000Y-88796184D01*
X109081000Y-88963816D01*
X109048297Y-89128228D01*
X108984147Y-89283100D01*
X108891015Y-89422481D01*
X108772481Y-89541015D01*
X108633100Y-89634147D01*
X108478228Y-89698297D01*
X108313816Y-89731000D01*
X108146184Y-89731000D01*
X107981772Y-89698297D01*
X107826900Y-89634147D01*
X107687519Y-89541015D01*
X107568985Y-89422481D01*
X107475853Y-89283100D01*
X107411703Y-89128228D01*
X107379000Y-88963816D01*
X107379000Y-88796184D01*
X107411703Y-88631772D01*
X107475853Y-88476900D01*
X107568985Y-88337519D01*
X107687519Y-88218985D01*
X107826900Y-88125853D01*
X107981772Y-88061703D01*
X108146184Y-88029000D01*
X108313816Y-88029000D01*
X108478228Y-88061703D01*
X108478228Y-88061703D01*
G37*
G36*
X103478228Y-88061703D02*
G01*
X103633100Y-88125853D01*
X103772481Y-88218985D01*
X103891015Y-88337519D01*
X103984147Y-88476900D01*
X104048297Y-88631772D01*
X104081000Y-88796184D01*
X104081000Y-88963816D01*
X104048297Y-89128228D01*
X103984147Y-89283100D01*
X103891015Y-89422481D01*
X103772481Y-89541015D01*
X103633100Y-89634147D01*
X103478228Y-89698297D01*
X103313816Y-89731000D01*
X103146184Y-89731000D01*
X102981772Y-89698297D01*
X102826900Y-89634147D01*
X102687519Y-89541015D01*
X102568985Y-89422481D01*
X102475853Y-89283100D01*
X102411703Y-89128228D01*
X102379000Y-88963816D01*
X102379000Y-88796184D01*
X102411703Y-88631772D01*
X102475853Y-88476900D01*
X102568985Y-88337519D01*
X102687519Y-88218985D01*
X102826900Y-88125853D01*
X102981772Y-88061703D01*
X103146184Y-88029000D01*
X103313816Y-88029000D01*
X103478228Y-88061703D01*
X103478228Y-88061703D01*
G37*
G36*
X82856823Y-87431313D02*
G01*
X83017242Y-87479976D01*
X83149906Y-87550886D01*
X83165078Y-87558996D01*
X83294659Y-87665341D01*
X83401004Y-87794922D01*
X83401005Y-87794924D01*
X83480024Y-87942758D01*
X83528687Y-88103177D01*
X83545117Y-88270000D01*
X83528687Y-88436823D01*
X83480024Y-88597242D01*
X83461567Y-88631772D01*
X83401004Y-88745078D01*
X83294659Y-88874659D01*
X83165078Y-88981004D01*
X83165076Y-88981005D01*
X83017242Y-89060024D01*
X82856823Y-89108687D01*
X82731804Y-89121000D01*
X81848196Y-89121000D01*
X81723177Y-89108687D01*
X81562758Y-89060024D01*
X81414924Y-88981005D01*
X81414922Y-88981004D01*
X81285341Y-88874659D01*
X81178996Y-88745078D01*
X81118433Y-88631772D01*
X81099976Y-88597242D01*
X81051313Y-88436823D01*
X81034883Y-88270000D01*
X81051313Y-88103177D01*
X81099976Y-87942758D01*
X81178995Y-87794924D01*
X81178996Y-87794922D01*
X81285341Y-87665341D01*
X81414922Y-87558996D01*
X81430094Y-87550886D01*
X81562758Y-87479976D01*
X81723177Y-87431313D01*
X81848196Y-87419000D01*
X82731804Y-87419000D01*
X82856823Y-87431313D01*
X82856823Y-87431313D01*
G37*
G36*
X75236823Y-87431313D02*
G01*
X75397242Y-87479976D01*
X75529906Y-87550886D01*
X75545078Y-87558996D01*
X75674659Y-87665341D01*
X75781004Y-87794922D01*
X75781005Y-87794924D01*
X75860024Y-87942758D01*
X75908687Y-88103177D01*
X75925117Y-88270000D01*
X75908687Y-88436823D01*
X75860024Y-88597242D01*
X75841567Y-88631772D01*
X75781004Y-88745078D01*
X75674659Y-88874659D01*
X75545078Y-88981004D01*
X75545076Y-88981005D01*
X75397242Y-89060024D01*
X75236823Y-89108687D01*
X75111804Y-89121000D01*
X74228196Y-89121000D01*
X74103177Y-89108687D01*
X73942758Y-89060024D01*
X73794924Y-88981005D01*
X73794922Y-88981004D01*
X73665341Y-88874659D01*
X73558996Y-88745078D01*
X73498433Y-88631772D01*
X73479976Y-88597242D01*
X73431313Y-88436823D01*
X73414883Y-88270000D01*
X73431313Y-88103177D01*
X73479976Y-87942758D01*
X73558995Y-87794924D01*
X73558996Y-87794922D01*
X73665341Y-87665341D01*
X73794922Y-87558996D01*
X73810094Y-87550886D01*
X73942758Y-87479976D01*
X74103177Y-87431313D01*
X74228196Y-87419000D01*
X75111804Y-87419000D01*
X75236823Y-87431313D01*
X75236823Y-87431313D01*
G37*
G36*
X118278228Y-85541703D02*
G01*
X118433100Y-85605853D01*
X118572481Y-85698985D01*
X118691015Y-85817519D01*
X118784147Y-85956900D01*
X118848297Y-86111772D01*
X118881000Y-86276184D01*
X118881000Y-86443816D01*
X118848297Y-86608228D01*
X118784147Y-86763100D01*
X118691015Y-86902481D01*
X118572481Y-87021015D01*
X118433100Y-87114147D01*
X118278228Y-87178297D01*
X118113816Y-87211000D01*
X117946184Y-87211000D01*
X117781772Y-87178297D01*
X117626900Y-87114147D01*
X117487519Y-87021015D01*
X117368985Y-86902481D01*
X117275853Y-86763100D01*
X117211703Y-86608228D01*
X117179000Y-86443816D01*
X117179000Y-86276184D01*
X117211703Y-86111772D01*
X117275853Y-85956900D01*
X117368985Y-85817519D01*
X117487519Y-85698985D01*
X117626900Y-85605853D01*
X117781772Y-85541703D01*
X117946184Y-85509000D01*
X118113816Y-85509000D01*
X118278228Y-85541703D01*
X118278228Y-85541703D01*
G37*
G36*
X113278228Y-85541703D02*
G01*
X113433100Y-85605853D01*
X113572481Y-85698985D01*
X113691015Y-85817519D01*
X113784147Y-85956900D01*
X113848297Y-86111772D01*
X113881000Y-86276184D01*
X113881000Y-86443816D01*
X113848297Y-86608228D01*
X113784147Y-86763100D01*
X113691015Y-86902481D01*
X113572481Y-87021015D01*
X113433100Y-87114147D01*
X113278228Y-87178297D01*
X113113816Y-87211000D01*
X112946184Y-87211000D01*
X112781772Y-87178297D01*
X112626900Y-87114147D01*
X112487519Y-87021015D01*
X112368985Y-86902481D01*
X112275853Y-86763100D01*
X112211703Y-86608228D01*
X112179000Y-86443816D01*
X112179000Y-86276184D01*
X112211703Y-86111772D01*
X112275853Y-85956900D01*
X112368985Y-85817519D01*
X112487519Y-85698985D01*
X112626900Y-85605853D01*
X112781772Y-85541703D01*
X112946184Y-85509000D01*
X113113816Y-85509000D01*
X113278228Y-85541703D01*
X113278228Y-85541703D01*
G37*
G36*
X82856823Y-84891313D02*
G01*
X83017242Y-84939976D01*
X83123595Y-84996823D01*
X83165078Y-85018996D01*
X83294659Y-85125341D01*
X83401004Y-85254922D01*
X83401005Y-85254924D01*
X83480024Y-85402758D01*
X83528687Y-85563177D01*
X83545117Y-85730000D01*
X83528687Y-85896823D01*
X83480024Y-86057242D01*
X83450877Y-86111772D01*
X83401004Y-86205078D01*
X83294659Y-86334659D01*
X83165078Y-86441004D01*
X83165076Y-86441005D01*
X83017242Y-86520024D01*
X82856823Y-86568687D01*
X82731804Y-86581000D01*
X81848196Y-86581000D01*
X81723177Y-86568687D01*
X81562758Y-86520024D01*
X81414924Y-86441005D01*
X81414922Y-86441004D01*
X81285341Y-86334659D01*
X81178996Y-86205078D01*
X81129123Y-86111772D01*
X81099976Y-86057242D01*
X81051313Y-85896823D01*
X81034883Y-85730000D01*
X81051313Y-85563177D01*
X81099976Y-85402758D01*
X81178995Y-85254924D01*
X81178996Y-85254922D01*
X81285341Y-85125341D01*
X81414922Y-85018996D01*
X81456405Y-84996823D01*
X81562758Y-84939976D01*
X81723177Y-84891313D01*
X81848196Y-84879000D01*
X82731804Y-84879000D01*
X82856823Y-84891313D01*
X82856823Y-84891313D01*
G37*
G36*
X75921000Y-86581000D02*
G01*
X73419000Y-86581000D01*
X73419000Y-84879000D01*
X75921000Y-84879000D01*
X75921000Y-86581000D01*
X75921000Y-86581000D01*
G37*
G36*
X105048228Y-84011703D02*
G01*
X105203100Y-84075853D01*
X105342481Y-84168985D01*
X105461015Y-84287519D01*
X105554147Y-84426900D01*
X105618297Y-84581772D01*
X105651000Y-84746184D01*
X105651000Y-84913816D01*
X105618297Y-85078228D01*
X105554147Y-85233100D01*
X105461015Y-85372481D01*
X105342481Y-85491015D01*
X105203100Y-85584147D01*
X105048228Y-85648297D01*
X104883816Y-85681000D01*
X104716184Y-85681000D01*
X104551772Y-85648297D01*
X104396900Y-85584147D01*
X104257519Y-85491015D01*
X104138985Y-85372481D01*
X104045853Y-85233100D01*
X103981703Y-85078228D01*
X103949000Y-84913816D01*
X103949000Y-84746184D01*
X103981703Y-84581772D01*
X104045853Y-84426900D01*
X104138985Y-84287519D01*
X104257519Y-84168985D01*
X104396900Y-84075853D01*
X104551772Y-84011703D01*
X104716184Y-83979000D01*
X104883816Y-83979000D01*
X105048228Y-84011703D01*
X105048228Y-84011703D01*
G37*
G36*
X110046823Y-83991313D02*
G01*
X110207242Y-84039976D01*
X110274361Y-84075852D01*
X110355078Y-84118996D01*
X110484659Y-84225341D01*
X110591004Y-84354922D01*
X110591005Y-84354924D01*
X110670024Y-84502758D01*
X110718687Y-84663177D01*
X110735117Y-84830000D01*
X110718687Y-84996823D01*
X110670024Y-85157242D01*
X110629477Y-85233100D01*
X110591004Y-85305078D01*
X110484659Y-85434659D01*
X110355078Y-85541004D01*
X110339906Y-85549114D01*
X110207242Y-85620024D01*
X110046823Y-85668687D01*
X109921804Y-85681000D01*
X109838196Y-85681000D01*
X109713177Y-85668687D01*
X109552758Y-85620024D01*
X109420094Y-85549114D01*
X109404922Y-85541004D01*
X109275341Y-85434659D01*
X109168996Y-85305078D01*
X109130523Y-85233100D01*
X109089976Y-85157242D01*
X109041313Y-84996823D01*
X109024883Y-84830000D01*
X109041313Y-84663177D01*
X109089976Y-84502758D01*
X109168995Y-84354924D01*
X109168996Y-84354922D01*
X109275341Y-84225341D01*
X109404922Y-84118996D01*
X109485639Y-84075852D01*
X109552758Y-84039976D01*
X109713177Y-83991313D01*
X109838196Y-83979000D01*
X109921804Y-83979000D01*
X110046823Y-83991313D01*
X110046823Y-83991313D01*
G37*
G36*
X101366823Y-83991313D02*
G01*
X101527242Y-84039976D01*
X101594361Y-84075852D01*
X101675078Y-84118996D01*
X101804659Y-84225341D01*
X101911004Y-84354922D01*
X101911005Y-84354924D01*
X101990024Y-84502758D01*
X102038687Y-84663177D01*
X102055117Y-84830000D01*
X102038687Y-84996823D01*
X101990024Y-85157242D01*
X101949477Y-85233100D01*
X101911004Y-85305078D01*
X101804659Y-85434659D01*
X101675078Y-85541004D01*
X101659906Y-85549114D01*
X101527242Y-85620024D01*
X101366823Y-85668687D01*
X101241804Y-85681000D01*
X101158196Y-85681000D01*
X101033177Y-85668687D01*
X100872758Y-85620024D01*
X100740094Y-85549114D01*
X100724922Y-85541004D01*
X100595341Y-85434659D01*
X100488996Y-85305078D01*
X100450523Y-85233100D01*
X100409976Y-85157242D01*
X100361313Y-84996823D01*
X100344883Y-84830000D01*
X100361313Y-84663177D01*
X100409976Y-84502758D01*
X100488995Y-84354924D01*
X100488996Y-84354922D01*
X100595341Y-84225341D01*
X100724922Y-84118996D01*
X100805639Y-84075852D01*
X100872758Y-84039976D01*
X101033177Y-83991313D01*
X101158196Y-83979000D01*
X101241804Y-83979000D01*
X101366823Y-83991313D01*
X101366823Y-83991313D01*
G37*
G36*
X96368228Y-84011703D02*
G01*
X96523100Y-84075853D01*
X96662481Y-84168985D01*
X96781015Y-84287519D01*
X96874147Y-84426900D01*
X96938297Y-84581772D01*
X96971000Y-84746184D01*
X96971000Y-84913816D01*
X96938297Y-85078228D01*
X96874147Y-85233100D01*
X96781015Y-85372481D01*
X96662481Y-85491015D01*
X96523100Y-85584147D01*
X96368228Y-85648297D01*
X96203816Y-85681000D01*
X96036184Y-85681000D01*
X95871772Y-85648297D01*
X95716900Y-85584147D01*
X95577519Y-85491015D01*
X95458985Y-85372481D01*
X95365853Y-85233100D01*
X95301703Y-85078228D01*
X95269000Y-84913816D01*
X95269000Y-84746184D01*
X95301703Y-84581772D01*
X95365853Y-84426900D01*
X95458985Y-84287519D01*
X95577519Y-84168985D01*
X95716900Y-84075853D01*
X95871772Y-84011703D01*
X96036184Y-83979000D01*
X96203816Y-83979000D01*
X96368228Y-84011703D01*
X96368228Y-84011703D01*
G37*
G36*
X91963467Y-82885668D02*
G01*
X91979567Y-82887254D01*
X92152233Y-82939632D01*
X92311364Y-83024689D01*
X92450844Y-83139156D01*
X92565311Y-83278635D01*
X92650368Y-83437766D01*
X92702746Y-83610433D01*
X92716000Y-83745002D01*
X92716000Y-84134997D01*
X92712652Y-84168985D01*
X92702746Y-84269567D01*
X92697300Y-84287519D01*
X92650368Y-84442234D01*
X92565311Y-84601365D01*
X92450844Y-84740844D01*
X92311365Y-84855311D01*
X92152234Y-84940368D01*
X91979568Y-84992746D01*
X91963468Y-84994332D01*
X91800000Y-85010432D01*
X91636533Y-84994332D01*
X91620433Y-84992746D01*
X91447767Y-84940368D01*
X91288636Y-84855311D01*
X91149157Y-84740844D01*
X91034689Y-84601365D01*
X90949632Y-84442234D01*
X90902700Y-84287520D01*
X90897254Y-84269568D01*
X90892898Y-84225341D01*
X90884000Y-84134998D01*
X90884000Y-83745003D01*
X90897254Y-83610434D01*
X90897255Y-83610432D01*
X90949632Y-83437768D01*
X90949632Y-83437767D01*
X91034689Y-83278636D01*
X91149156Y-83139156D01*
X91288635Y-83024689D01*
X91447766Y-82939632D01*
X91620432Y-82887254D01*
X91636532Y-82885668D01*
X91800000Y-82869568D01*
X91963467Y-82885668D01*
X91963467Y-82885668D01*
G37*
G36*
X89423467Y-82885668D02*
G01*
X89439567Y-82887254D01*
X89612233Y-82939632D01*
X89771364Y-83024689D01*
X89910844Y-83139156D01*
X90025311Y-83278635D01*
X90110368Y-83437766D01*
X90162746Y-83610433D01*
X90176000Y-83745002D01*
X90176000Y-84134997D01*
X90172652Y-84168985D01*
X90162746Y-84269567D01*
X90157300Y-84287519D01*
X90110368Y-84442234D01*
X90025311Y-84601365D01*
X89910844Y-84740844D01*
X89771365Y-84855311D01*
X89612234Y-84940368D01*
X89439568Y-84992746D01*
X89423468Y-84994332D01*
X89260000Y-85010432D01*
X89096533Y-84994332D01*
X89080433Y-84992746D01*
X88907767Y-84940368D01*
X88748636Y-84855311D01*
X88609157Y-84740844D01*
X88494689Y-84601365D01*
X88409632Y-84442234D01*
X88362700Y-84287520D01*
X88357254Y-84269568D01*
X88352898Y-84225341D01*
X88344000Y-84134998D01*
X88344000Y-83745003D01*
X88357254Y-83610434D01*
X88357255Y-83610432D01*
X88409632Y-83437768D01*
X88409632Y-83437767D01*
X88494689Y-83278636D01*
X88609156Y-83139156D01*
X88748635Y-83024689D01*
X88907766Y-82939632D01*
X89080432Y-82887254D01*
X89096532Y-82885668D01*
X89260000Y-82869568D01*
X89423467Y-82885668D01*
X89423467Y-82885668D01*
G37*
G36*
X87636000Y-85006000D02*
G01*
X85804000Y-85006000D01*
X85804000Y-82874000D01*
X87636000Y-82874000D01*
X87636000Y-85006000D01*
X87636000Y-85006000D01*
G37*
G36*
X82956823Y-80711313D02*
G01*
X83117242Y-80759976D01*
X83249906Y-80830886D01*
X83265078Y-80838996D01*
X83394659Y-80945341D01*
X83501004Y-81074922D01*
X83501005Y-81074924D01*
X83580024Y-81222758D01*
X83628687Y-81383177D01*
X83645117Y-81550000D01*
X83628687Y-81716823D01*
X83580024Y-81877242D01*
X83509114Y-82009906D01*
X83501004Y-82025078D01*
X83394659Y-82154659D01*
X83265078Y-82261004D01*
X83265076Y-82261005D01*
X83117242Y-82340024D01*
X82956823Y-82388687D01*
X82831804Y-82401000D01*
X81948196Y-82401000D01*
X81823177Y-82388687D01*
X81662758Y-82340024D01*
X81514924Y-82261005D01*
X81514922Y-82261004D01*
X81385341Y-82154659D01*
X81278996Y-82025078D01*
X81270886Y-82009906D01*
X81199976Y-81877242D01*
X81151313Y-81716823D01*
X81134883Y-81550000D01*
X81151313Y-81383177D01*
X81199976Y-81222758D01*
X81278995Y-81074924D01*
X81278996Y-81074922D01*
X81385341Y-80945341D01*
X81514922Y-80838996D01*
X81530094Y-80830886D01*
X81662758Y-80759976D01*
X81823177Y-80711313D01*
X81948196Y-80699000D01*
X82831804Y-80699000D01*
X82956823Y-80711313D01*
X82956823Y-80711313D01*
G37*
G36*
X75336823Y-80711313D02*
G01*
X75497242Y-80759976D01*
X75629906Y-80830886D01*
X75645078Y-80838996D01*
X75774659Y-80945341D01*
X75881004Y-81074922D01*
X75881005Y-81074924D01*
X75960024Y-81222758D01*
X76008687Y-81383177D01*
X76025117Y-81550000D01*
X76008687Y-81716823D01*
X75960024Y-81877242D01*
X75889114Y-82009906D01*
X75881004Y-82025078D01*
X75774659Y-82154659D01*
X75645078Y-82261004D01*
X75645076Y-82261005D01*
X75497242Y-82340024D01*
X75336823Y-82388687D01*
X75211804Y-82401000D01*
X74328196Y-82401000D01*
X74203177Y-82388687D01*
X74042758Y-82340024D01*
X73894924Y-82261005D01*
X73894922Y-82261004D01*
X73765341Y-82154659D01*
X73658996Y-82025078D01*
X73650886Y-82009906D01*
X73579976Y-81877242D01*
X73531313Y-81716823D01*
X73514883Y-81550000D01*
X73531313Y-81383177D01*
X73579976Y-81222758D01*
X73658995Y-81074924D01*
X73658996Y-81074922D01*
X73765341Y-80945341D01*
X73894922Y-80838996D01*
X73910094Y-80830886D01*
X74042758Y-80759976D01*
X74203177Y-80711313D01*
X74328196Y-80699000D01*
X75211804Y-80699000D01*
X75336823Y-80711313D01*
X75336823Y-80711313D01*
G37*
G36*
X113278228Y-80461703D02*
G01*
X113433100Y-80525853D01*
X113572481Y-80618985D01*
X113691015Y-80737519D01*
X113784147Y-80876900D01*
X113848297Y-81031772D01*
X113881000Y-81196184D01*
X113881000Y-81363816D01*
X113848297Y-81528228D01*
X113784147Y-81683100D01*
X113691015Y-81822481D01*
X113572481Y-81941015D01*
X113433100Y-82034147D01*
X113278228Y-82098297D01*
X113113816Y-82131000D01*
X112946184Y-82131000D01*
X112781772Y-82098297D01*
X112626900Y-82034147D01*
X112487519Y-81941015D01*
X112368985Y-81822481D01*
X112275853Y-81683100D01*
X112211703Y-81528228D01*
X112179000Y-81363816D01*
X112179000Y-81196184D01*
X112211703Y-81031772D01*
X112275853Y-80876900D01*
X112368985Y-80737519D01*
X112487519Y-80618985D01*
X112626900Y-80525853D01*
X112781772Y-80461703D01*
X112946184Y-80429000D01*
X113113816Y-80429000D01*
X113278228Y-80461703D01*
X113278228Y-80461703D01*
G37*
G36*
X118278228Y-80461703D02*
G01*
X118433100Y-80525853D01*
X118572481Y-80618985D01*
X118691015Y-80737519D01*
X118784147Y-80876900D01*
X118848297Y-81031772D01*
X118881000Y-81196184D01*
X118881000Y-81363816D01*
X118848297Y-81528228D01*
X118784147Y-81683100D01*
X118691015Y-81822481D01*
X118572481Y-81941015D01*
X118433100Y-82034147D01*
X118278228Y-82098297D01*
X118113816Y-82131000D01*
X117946184Y-82131000D01*
X117781772Y-82098297D01*
X117626900Y-82034147D01*
X117487519Y-81941015D01*
X117368985Y-81822481D01*
X117275853Y-81683100D01*
X117211703Y-81528228D01*
X117179000Y-81363816D01*
X117179000Y-81196184D01*
X117211703Y-81031772D01*
X117275853Y-80876900D01*
X117368985Y-80737519D01*
X117487519Y-80618985D01*
X117626900Y-80525853D01*
X117781772Y-80461703D01*
X117946184Y-80429000D01*
X118113816Y-80429000D01*
X118278228Y-80461703D01*
X118278228Y-80461703D01*
G37*
G36*
X82956823Y-78171313D02*
G01*
X83117242Y-78219976D01*
X83238897Y-78285002D01*
X83265078Y-78298996D01*
X83394659Y-78405341D01*
X83501004Y-78534922D01*
X83501005Y-78534924D01*
X83580024Y-78682758D01*
X83628687Y-78843177D01*
X83645117Y-79010000D01*
X83628687Y-79176823D01*
X83580024Y-79337242D01*
X83548985Y-79395311D01*
X83501004Y-79485078D01*
X83394659Y-79614659D01*
X83265078Y-79721004D01*
X83265076Y-79721005D01*
X83117242Y-79800024D01*
X82956823Y-79848687D01*
X82831804Y-79861000D01*
X81948196Y-79861000D01*
X81823177Y-79848687D01*
X81662758Y-79800024D01*
X81514924Y-79721005D01*
X81514922Y-79721004D01*
X81385341Y-79614659D01*
X81278996Y-79485078D01*
X81231015Y-79395311D01*
X81199976Y-79337242D01*
X81151313Y-79176823D01*
X81134883Y-79010000D01*
X81151313Y-78843177D01*
X81199976Y-78682758D01*
X81278995Y-78534924D01*
X81278996Y-78534922D01*
X81385341Y-78405341D01*
X81514922Y-78298996D01*
X81541103Y-78285002D01*
X81662758Y-78219976D01*
X81823177Y-78171313D01*
X81948196Y-78159000D01*
X82831804Y-78159000D01*
X82956823Y-78171313D01*
X82956823Y-78171313D01*
G37*
G36*
X75336823Y-78171313D02*
G01*
X75497242Y-78219976D01*
X75618897Y-78285002D01*
X75645078Y-78298996D01*
X75774659Y-78405341D01*
X75881004Y-78534922D01*
X75881005Y-78534924D01*
X75960024Y-78682758D01*
X76008687Y-78843177D01*
X76025117Y-79010000D01*
X76008687Y-79176823D01*
X75960024Y-79337242D01*
X75928985Y-79395311D01*
X75881004Y-79485078D01*
X75774659Y-79614659D01*
X75645078Y-79721004D01*
X75645076Y-79721005D01*
X75497242Y-79800024D01*
X75336823Y-79848687D01*
X75211804Y-79861000D01*
X74328196Y-79861000D01*
X74203177Y-79848687D01*
X74042758Y-79800024D01*
X73894924Y-79721005D01*
X73894922Y-79721004D01*
X73765341Y-79614659D01*
X73658996Y-79485078D01*
X73611015Y-79395311D01*
X73579976Y-79337242D01*
X73531313Y-79176823D01*
X73514883Y-79010000D01*
X73531313Y-78843177D01*
X73579976Y-78682758D01*
X73658995Y-78534924D01*
X73658996Y-78534922D01*
X73765341Y-78405341D01*
X73894922Y-78298996D01*
X73921103Y-78285002D01*
X74042758Y-78219976D01*
X74203177Y-78171313D01*
X74328196Y-78159000D01*
X75211804Y-78159000D01*
X75336823Y-78171313D01*
X75336823Y-78171313D01*
G37*
G36*
X101943467Y-77425668D02*
G01*
X101959567Y-77427254D01*
X102132233Y-77479632D01*
X102291364Y-77564689D01*
X102430844Y-77679156D01*
X102545311Y-77818635D01*
X102630368Y-77977766D01*
X102682746Y-78150433D01*
X102696000Y-78285002D01*
X102696000Y-78674997D01*
X102695235Y-78682761D01*
X102682746Y-78809567D01*
X102672551Y-78843175D01*
X102630368Y-78982234D01*
X102545311Y-79141365D01*
X102430844Y-79280844D01*
X102291365Y-79395311D01*
X102132234Y-79480368D01*
X101959568Y-79532746D01*
X101943468Y-79534332D01*
X101780000Y-79550432D01*
X101616533Y-79534332D01*
X101600433Y-79532746D01*
X101514101Y-79506557D01*
X101427767Y-79480368D01*
X101268636Y-79395311D01*
X101129157Y-79280844D01*
X101014689Y-79141365D01*
X100929632Y-78982234D01*
X100877254Y-78809567D01*
X100864000Y-78674998D01*
X100864000Y-78285003D01*
X100877254Y-78150434D01*
X100877255Y-78150432D01*
X100916813Y-78020025D01*
X100929632Y-77977767D01*
X101014689Y-77818636D01*
X101129156Y-77679156D01*
X101268635Y-77564689D01*
X101427766Y-77479632D01*
X101514100Y-77453443D01*
X101600432Y-77427254D01*
X101616532Y-77425668D01*
X101780000Y-77409568D01*
X101943467Y-77425668D01*
X101943467Y-77425668D01*
G37*
G36*
X99403467Y-77425668D02*
G01*
X99419567Y-77427254D01*
X99592233Y-77479632D01*
X99751364Y-77564689D01*
X99890844Y-77679156D01*
X100005311Y-77818635D01*
X100090368Y-77977766D01*
X100142746Y-78150433D01*
X100156000Y-78285002D01*
X100156000Y-78674997D01*
X100155235Y-78682761D01*
X100142746Y-78809567D01*
X100132551Y-78843175D01*
X100090368Y-78982234D01*
X100005311Y-79141365D01*
X99890844Y-79280844D01*
X99751365Y-79395311D01*
X99592234Y-79480368D01*
X99419568Y-79532746D01*
X99403468Y-79534332D01*
X99240000Y-79550432D01*
X99076533Y-79534332D01*
X99060433Y-79532746D01*
X98974101Y-79506557D01*
X98887767Y-79480368D01*
X98728636Y-79395311D01*
X98589157Y-79280844D01*
X98474689Y-79141365D01*
X98389632Y-78982234D01*
X98337254Y-78809567D01*
X98324000Y-78674998D01*
X98324000Y-78285003D01*
X98337254Y-78150434D01*
X98337255Y-78150432D01*
X98376813Y-78020025D01*
X98389632Y-77977767D01*
X98474689Y-77818636D01*
X98589156Y-77679156D01*
X98728635Y-77564689D01*
X98887766Y-77479632D01*
X98974100Y-77453443D01*
X99060432Y-77427254D01*
X99076532Y-77425668D01*
X99240000Y-77409568D01*
X99403467Y-77425668D01*
X99403467Y-77425668D01*
G37*
G36*
X97616000Y-79546000D02*
G01*
X95784000Y-79546000D01*
X95784000Y-77414000D01*
X97616000Y-77414000D01*
X97616000Y-79546000D01*
X97616000Y-79546000D01*
G37*
G36*
X88071000Y-79090899D02*
G01*
X85169000Y-79090899D01*
X85169000Y-76188899D01*
X88071000Y-76188899D01*
X88071000Y-79090899D01*
X88071000Y-79090899D01*
G37*
G36*
X91877861Y-76199396D02*
G01*
X91984446Y-76209894D01*
X92257960Y-76292864D01*
X92257963Y-76292865D01*
X92510028Y-76427597D01*
X92510029Y-76427598D01*
X92510033Y-76427600D01*
X92730976Y-76608923D01*
X92912299Y-76829866D01*
X92912301Y-76829870D01*
X92912302Y-76829871D01*
X93047034Y-77081936D01*
X93047035Y-77081939D01*
X93130005Y-77355453D01*
X93158020Y-77639899D01*
X93130005Y-77924345D01*
X93061421Y-78150434D01*
X93047034Y-78197862D01*
X92912302Y-78449927D01*
X92912299Y-78449932D01*
X92730976Y-78670875D01*
X92510033Y-78852198D01*
X92510029Y-78852200D01*
X92510028Y-78852201D01*
X92257963Y-78986933D01*
X92257960Y-78986934D01*
X91984446Y-79069904D01*
X91877861Y-79080402D01*
X91771278Y-79090899D01*
X91628722Y-79090899D01*
X91522139Y-79080402D01*
X91415554Y-79069904D01*
X91142040Y-78986934D01*
X91142037Y-78986933D01*
X90889972Y-78852201D01*
X90889971Y-78852200D01*
X90889967Y-78852198D01*
X90669024Y-78670875D01*
X90487701Y-78449932D01*
X90487698Y-78449927D01*
X90352966Y-78197862D01*
X90338579Y-78150434D01*
X90269995Y-77924345D01*
X90241980Y-77639899D01*
X90269995Y-77355453D01*
X90352965Y-77081939D01*
X90352966Y-77081936D01*
X90487698Y-76829871D01*
X90487699Y-76829870D01*
X90487701Y-76829866D01*
X90669024Y-76608923D01*
X90889967Y-76427600D01*
X90889971Y-76427598D01*
X90889972Y-76427597D01*
X91142037Y-76292865D01*
X91142040Y-76292864D01*
X91415554Y-76209894D01*
X91522139Y-76199396D01*
X91628722Y-76188899D01*
X91771278Y-76188899D01*
X91877861Y-76199396D01*
X91877861Y-76199396D01*
G37*
G36*
X119578228Y-76411703D02*
G01*
X119733100Y-76475853D01*
X119872481Y-76568985D01*
X119991015Y-76687519D01*
X120084147Y-76826900D01*
X120148297Y-76981772D01*
X120181000Y-77146184D01*
X120181000Y-77313816D01*
X120148297Y-77478228D01*
X120084147Y-77633100D01*
X119991015Y-77772481D01*
X119872481Y-77891015D01*
X119733100Y-77984147D01*
X119578228Y-78048297D01*
X119413816Y-78081000D01*
X119246184Y-78081000D01*
X119081772Y-78048297D01*
X118926900Y-77984147D01*
X118787519Y-77891015D01*
X118668985Y-77772481D01*
X118575853Y-77633100D01*
X118511703Y-77478228D01*
X118479000Y-77313816D01*
X118479000Y-77146184D01*
X118511703Y-76981772D01*
X118575853Y-76826900D01*
X118668985Y-76687519D01*
X118787519Y-76568985D01*
X118926900Y-76475853D01*
X119081772Y-76411703D01*
X119246184Y-76379000D01*
X119413816Y-76379000D01*
X119578228Y-76411703D01*
X119578228Y-76411703D01*
G37*
G36*
X106348228Y-76411703D02*
G01*
X106503100Y-76475853D01*
X106642481Y-76568985D01*
X106761015Y-76687519D01*
X106854147Y-76826900D01*
X106918297Y-76981772D01*
X106951000Y-77146184D01*
X106951000Y-77313816D01*
X106918297Y-77478228D01*
X106854147Y-77633100D01*
X106761015Y-77772481D01*
X106642481Y-77891015D01*
X106503100Y-77984147D01*
X106348228Y-78048297D01*
X106183816Y-78081000D01*
X106016184Y-78081000D01*
X105851772Y-78048297D01*
X105696900Y-77984147D01*
X105557519Y-77891015D01*
X105438985Y-77772481D01*
X105345853Y-77633100D01*
X105281703Y-77478228D01*
X105249000Y-77313816D01*
X105249000Y-77146184D01*
X105281703Y-76981772D01*
X105345853Y-76826900D01*
X105438985Y-76687519D01*
X105557519Y-76568985D01*
X105696900Y-76475853D01*
X105851772Y-76411703D01*
X106016184Y-76379000D01*
X106183816Y-76379000D01*
X106348228Y-76411703D01*
X106348228Y-76411703D01*
G37*
G36*
X111346823Y-76391313D02*
G01*
X111507242Y-76439976D01*
X111574361Y-76475852D01*
X111655078Y-76518996D01*
X111784659Y-76625341D01*
X111891004Y-76754922D01*
X111891005Y-76754924D01*
X111970024Y-76902758D01*
X112018687Y-77063177D01*
X112035117Y-77230000D01*
X112018687Y-77396823D01*
X111970024Y-77557242D01*
X111904859Y-77679157D01*
X111891004Y-77705078D01*
X111784659Y-77834659D01*
X111655078Y-77941004D01*
X111655076Y-77941005D01*
X111507242Y-78020024D01*
X111346823Y-78068687D01*
X111221804Y-78081000D01*
X111138196Y-78081000D01*
X111013177Y-78068687D01*
X110852758Y-78020024D01*
X110704924Y-77941005D01*
X110704922Y-77941004D01*
X110575341Y-77834659D01*
X110468996Y-77705078D01*
X110455141Y-77679157D01*
X110389976Y-77557242D01*
X110341313Y-77396823D01*
X110324883Y-77230000D01*
X110341313Y-77063177D01*
X110389976Y-76902758D01*
X110468995Y-76754924D01*
X110468996Y-76754922D01*
X110575341Y-76625341D01*
X110704922Y-76518996D01*
X110785639Y-76475852D01*
X110852758Y-76439976D01*
X111013177Y-76391313D01*
X111138196Y-76379000D01*
X111221804Y-76379000D01*
X111346823Y-76391313D01*
X111346823Y-76391313D01*
G37*
G36*
X114578228Y-76411703D02*
G01*
X114733100Y-76475853D01*
X114872481Y-76568985D01*
X114991015Y-76687519D01*
X115084147Y-76826900D01*
X115148297Y-76981772D01*
X115181000Y-77146184D01*
X115181000Y-77313816D01*
X115148297Y-77478228D01*
X115084147Y-77633100D01*
X114991015Y-77772481D01*
X114872481Y-77891015D01*
X114733100Y-77984147D01*
X114578228Y-78048297D01*
X114413816Y-78081000D01*
X114246184Y-78081000D01*
X114081772Y-78048297D01*
X113926900Y-77984147D01*
X113787519Y-77891015D01*
X113668985Y-77772481D01*
X113575853Y-77633100D01*
X113511703Y-77478228D01*
X113479000Y-77313816D01*
X113479000Y-77146184D01*
X113511703Y-76981772D01*
X113575853Y-76826900D01*
X113668985Y-76687519D01*
X113787519Y-76568985D01*
X113926900Y-76475853D01*
X114081772Y-76411703D01*
X114246184Y-76379000D01*
X114413816Y-76379000D01*
X114578228Y-76411703D01*
X114578228Y-76411703D01*
G37*
G36*
X82956823Y-75631313D02*
G01*
X83117242Y-75679976D01*
X83249906Y-75750886D01*
X83265078Y-75758996D01*
X83394659Y-75865341D01*
X83501004Y-75994922D01*
X83501005Y-75994924D01*
X83580024Y-76142758D01*
X83628687Y-76303177D01*
X83645117Y-76470000D01*
X83628687Y-76636823D01*
X83580024Y-76797242D01*
X83562586Y-76829866D01*
X83501004Y-76945078D01*
X83394659Y-77074659D01*
X83265078Y-77181004D01*
X83265076Y-77181005D01*
X83117242Y-77260024D01*
X82956823Y-77308687D01*
X82831804Y-77321000D01*
X81948196Y-77321000D01*
X81823177Y-77308687D01*
X81662758Y-77260024D01*
X81514924Y-77181005D01*
X81514922Y-77181004D01*
X81385341Y-77074659D01*
X81278996Y-76945078D01*
X81217414Y-76829866D01*
X81199976Y-76797242D01*
X81151313Y-76636823D01*
X81134883Y-76470000D01*
X81151313Y-76303177D01*
X81199976Y-76142758D01*
X81278995Y-75994924D01*
X81278996Y-75994922D01*
X81385341Y-75865341D01*
X81514922Y-75758996D01*
X81530094Y-75750886D01*
X81662758Y-75679976D01*
X81823177Y-75631313D01*
X81948196Y-75619000D01*
X82831804Y-75619000D01*
X82956823Y-75631313D01*
X82956823Y-75631313D01*
G37*
G36*
X75336823Y-75631313D02*
G01*
X75497242Y-75679976D01*
X75629906Y-75750886D01*
X75645078Y-75758996D01*
X75774659Y-75865341D01*
X75881004Y-75994922D01*
X75881005Y-75994924D01*
X75960024Y-76142758D01*
X76008687Y-76303177D01*
X76025117Y-76470000D01*
X76008687Y-76636823D01*
X75960024Y-76797242D01*
X75942586Y-76829866D01*
X75881004Y-76945078D01*
X75774659Y-77074659D01*
X75645078Y-77181004D01*
X75645076Y-77181005D01*
X75497242Y-77260024D01*
X75336823Y-77308687D01*
X75211804Y-77321000D01*
X74328196Y-77321000D01*
X74203177Y-77308687D01*
X74042758Y-77260024D01*
X73894924Y-77181005D01*
X73894922Y-77181004D01*
X73765341Y-77074659D01*
X73658996Y-76945078D01*
X73597414Y-76829866D01*
X73579976Y-76797242D01*
X73531313Y-76636823D01*
X73514883Y-76470000D01*
X73531313Y-76303177D01*
X73579976Y-76142758D01*
X73658995Y-75994924D01*
X73658996Y-75994922D01*
X73765341Y-75865341D01*
X73894922Y-75758996D01*
X73910094Y-75750886D01*
X74042758Y-75679976D01*
X74203177Y-75631313D01*
X74328196Y-75619000D01*
X75211804Y-75619000D01*
X75336823Y-75631313D01*
X75336823Y-75631313D01*
G37*
G36*
X76021000Y-74781000D02*
G01*
X73519000Y-74781000D01*
X73519000Y-73079000D01*
X76021000Y-73079000D01*
X76021000Y-74781000D01*
X76021000Y-74781000D01*
G37*
G36*
X82956823Y-73091313D02*
G01*
X83117242Y-73139976D01*
X83249906Y-73210886D01*
X83265078Y-73218996D01*
X83394659Y-73325341D01*
X83501004Y-73454922D01*
X83501005Y-73454924D01*
X83580024Y-73602758D01*
X83628687Y-73763177D01*
X83645117Y-73930000D01*
X83628687Y-74096823D01*
X83580024Y-74257242D01*
X83509114Y-74389906D01*
X83501004Y-74405078D01*
X83394659Y-74534659D01*
X83265078Y-74641004D01*
X83265076Y-74641005D01*
X83117242Y-74720024D01*
X82956823Y-74768687D01*
X82831804Y-74781000D01*
X81948196Y-74781000D01*
X81823177Y-74768687D01*
X81662758Y-74720024D01*
X81514924Y-74641005D01*
X81514922Y-74641004D01*
X81385341Y-74534659D01*
X81278996Y-74405078D01*
X81270886Y-74389906D01*
X81199976Y-74257242D01*
X81151313Y-74096823D01*
X81134883Y-73930000D01*
X81151313Y-73763177D01*
X81199976Y-73602758D01*
X81278995Y-73454924D01*
X81278996Y-73454922D01*
X81385341Y-73325341D01*
X81514922Y-73218996D01*
X81530094Y-73210886D01*
X81662758Y-73139976D01*
X81823177Y-73091313D01*
X81948196Y-73079000D01*
X82831804Y-73079000D01*
X82956823Y-73091313D01*
X82956823Y-73091313D01*
G37*
G36*
X111346823Y-72341313D02*
G01*
X111507242Y-72389976D01*
X111574361Y-72425852D01*
X111655078Y-72468996D01*
X111784659Y-72575341D01*
X111891004Y-72704922D01*
X111891005Y-72704924D01*
X111970024Y-72852758D01*
X112018687Y-73013177D01*
X112035117Y-73180000D01*
X112018687Y-73346823D01*
X111970024Y-73507242D01*
X111918968Y-73602761D01*
X111891004Y-73655078D01*
X111784659Y-73784659D01*
X111655078Y-73891004D01*
X111655076Y-73891005D01*
X111507242Y-73970024D01*
X111346823Y-74018687D01*
X111221804Y-74031000D01*
X111138196Y-74031000D01*
X111013177Y-74018687D01*
X110852758Y-73970024D01*
X110704924Y-73891005D01*
X110704922Y-73891004D01*
X110575341Y-73784659D01*
X110468996Y-73655078D01*
X110441032Y-73602761D01*
X110389976Y-73507242D01*
X110341313Y-73346823D01*
X110324883Y-73180000D01*
X110341313Y-73013177D01*
X110389976Y-72852758D01*
X110468995Y-72704924D01*
X110468996Y-72704922D01*
X110575341Y-72575341D01*
X110704922Y-72468996D01*
X110785639Y-72425852D01*
X110852758Y-72389976D01*
X111013177Y-72341313D01*
X111138196Y-72329000D01*
X111221804Y-72329000D01*
X111346823Y-72341313D01*
X111346823Y-72341313D01*
G37*
G36*
X106348228Y-72361703D02*
G01*
X106503100Y-72425853D01*
X106642481Y-72518985D01*
X106761015Y-72637519D01*
X106854147Y-72776900D01*
X106918297Y-72931772D01*
X106951000Y-73096184D01*
X106951000Y-73263816D01*
X106918297Y-73428228D01*
X106854147Y-73583100D01*
X106761015Y-73722481D01*
X106642481Y-73841015D01*
X106503100Y-73934147D01*
X106348228Y-73998297D01*
X106183816Y-74031000D01*
X106016184Y-74031000D01*
X105851772Y-73998297D01*
X105696900Y-73934147D01*
X105557519Y-73841015D01*
X105438985Y-73722481D01*
X105345853Y-73583100D01*
X105281703Y-73428228D01*
X105249000Y-73263816D01*
X105249000Y-73096184D01*
X105281703Y-72931772D01*
X105345853Y-72776900D01*
X105438985Y-72637519D01*
X105557519Y-72518985D01*
X105696900Y-72425853D01*
X105851772Y-72361703D01*
X106016184Y-72329000D01*
X106183816Y-72329000D01*
X106348228Y-72361703D01*
X106348228Y-72361703D01*
G37*
G36*
X114578228Y-72361703D02*
G01*
X114733100Y-72425853D01*
X114872481Y-72518985D01*
X114991015Y-72637519D01*
X115084147Y-72776900D01*
X115148297Y-72931772D01*
X115181000Y-73096184D01*
X115181000Y-73263816D01*
X115148297Y-73428228D01*
X115084147Y-73583100D01*
X114991015Y-73722481D01*
X114872481Y-73841015D01*
X114733100Y-73934147D01*
X114578228Y-73998297D01*
X114413816Y-74031000D01*
X114246184Y-74031000D01*
X114081772Y-73998297D01*
X113926900Y-73934147D01*
X113787519Y-73841015D01*
X113668985Y-73722481D01*
X113575853Y-73583100D01*
X113511703Y-73428228D01*
X113479000Y-73263816D01*
X113479000Y-73096184D01*
X113511703Y-72931772D01*
X113575853Y-72776900D01*
X113668985Y-72637519D01*
X113787519Y-72518985D01*
X113926900Y-72425853D01*
X114081772Y-72361703D01*
X114246184Y-72329000D01*
X114413816Y-72329000D01*
X114578228Y-72361703D01*
X114578228Y-72361703D01*
G37*
G36*
X119578228Y-72361703D02*
G01*
X119733100Y-72425853D01*
X119872481Y-72518985D01*
X119991015Y-72637519D01*
X120084147Y-72776900D01*
X120148297Y-72931772D01*
X120181000Y-73096184D01*
X120181000Y-73263816D01*
X120148297Y-73428228D01*
X120084147Y-73583100D01*
X119991015Y-73722481D01*
X119872481Y-73841015D01*
X119733100Y-73934147D01*
X119578228Y-73998297D01*
X119413816Y-74031000D01*
X119246184Y-74031000D01*
X119081772Y-73998297D01*
X118926900Y-73934147D01*
X118787519Y-73841015D01*
X118668985Y-73722481D01*
X118575853Y-73583100D01*
X118511703Y-73428228D01*
X118479000Y-73263816D01*
X118479000Y-73096184D01*
X118511703Y-72931772D01*
X118575853Y-72776900D01*
X118668985Y-72637519D01*
X118787519Y-72518985D01*
X118926900Y-72425853D01*
X119081772Y-72361703D01*
X119246184Y-72329000D01*
X119413816Y-72329000D01*
X119578228Y-72361703D01*
X119578228Y-72361703D01*
G37*
G36*
X97006823Y-71961313D02*
G01*
X97167242Y-72009976D01*
X97299906Y-72080886D01*
X97315078Y-72088996D01*
X97444659Y-72195341D01*
X97551004Y-72324922D01*
X97551005Y-72324924D01*
X97630024Y-72472758D01*
X97678687Y-72633177D01*
X97695117Y-72800000D01*
X97678687Y-72966823D01*
X97630024Y-73127242D01*
X97601824Y-73180000D01*
X97551004Y-73275078D01*
X97444659Y-73404659D01*
X97315078Y-73511004D01*
X97315076Y-73511005D01*
X97167242Y-73590024D01*
X97006823Y-73638687D01*
X96881804Y-73651000D01*
X95998196Y-73651000D01*
X95873177Y-73638687D01*
X95712758Y-73590024D01*
X95564924Y-73511005D01*
X95564922Y-73511004D01*
X95435341Y-73404659D01*
X95328996Y-73275078D01*
X95278176Y-73180000D01*
X95249976Y-73127242D01*
X95201313Y-72966823D01*
X95184883Y-72800000D01*
X95201313Y-72633177D01*
X95249976Y-72472758D01*
X95328995Y-72324924D01*
X95328996Y-72324922D01*
X95435341Y-72195341D01*
X95564922Y-72088996D01*
X95580094Y-72080886D01*
X95712758Y-72009976D01*
X95873177Y-71961313D01*
X95998196Y-71949000D01*
X96881804Y-71949000D01*
X97006823Y-71961313D01*
X97006823Y-71961313D01*
G37*
G36*
X89386823Y-71961313D02*
G01*
X89547242Y-72009976D01*
X89679906Y-72080886D01*
X89695078Y-72088996D01*
X89824659Y-72195341D01*
X89931004Y-72324922D01*
X89931005Y-72324924D01*
X90010024Y-72472758D01*
X90058687Y-72633177D01*
X90075117Y-72800000D01*
X90058687Y-72966823D01*
X90010024Y-73127242D01*
X89981824Y-73180000D01*
X89931004Y-73275078D01*
X89824659Y-73404659D01*
X89695078Y-73511004D01*
X89695076Y-73511005D01*
X89547242Y-73590024D01*
X89386823Y-73638687D01*
X89261804Y-73651000D01*
X88378196Y-73651000D01*
X88253177Y-73638687D01*
X88092758Y-73590024D01*
X87944924Y-73511005D01*
X87944922Y-73511004D01*
X87815341Y-73404659D01*
X87708996Y-73275078D01*
X87658176Y-73180000D01*
X87629976Y-73127242D01*
X87581313Y-72966823D01*
X87564883Y-72800000D01*
X87581313Y-72633177D01*
X87629976Y-72472758D01*
X87708995Y-72324924D01*
X87708996Y-72324922D01*
X87815341Y-72195341D01*
X87944922Y-72088996D01*
X87960094Y-72080886D01*
X88092758Y-72009976D01*
X88253177Y-71961313D01*
X88378196Y-71949000D01*
X89261804Y-71949000D01*
X89386823Y-71961313D01*
X89386823Y-71961313D01*
G37*
G36*
X89386823Y-69421313D02*
G01*
X89547242Y-69469976D01*
X89679906Y-69540886D01*
X89695078Y-69548996D01*
X89824659Y-69655341D01*
X89931004Y-69784922D01*
X89931005Y-69784924D01*
X90010024Y-69932758D01*
X90058687Y-70093177D01*
X90075117Y-70260000D01*
X90058687Y-70426823D01*
X90010024Y-70587242D01*
X89939114Y-70719906D01*
X89931004Y-70735078D01*
X89824659Y-70864659D01*
X89695078Y-70971004D01*
X89695076Y-70971005D01*
X89547242Y-71050024D01*
X89386823Y-71098687D01*
X89261804Y-71111000D01*
X88378196Y-71111000D01*
X88253177Y-71098687D01*
X88092758Y-71050024D01*
X87944924Y-70971005D01*
X87944922Y-70971004D01*
X87815341Y-70864659D01*
X87708996Y-70735078D01*
X87700886Y-70719906D01*
X87629976Y-70587242D01*
X87581313Y-70426823D01*
X87564883Y-70260000D01*
X87581313Y-70093177D01*
X87629976Y-69932758D01*
X87708995Y-69784924D01*
X87708996Y-69784922D01*
X87815341Y-69655341D01*
X87944922Y-69548996D01*
X87960094Y-69540886D01*
X88092758Y-69469976D01*
X88253177Y-69421313D01*
X88378196Y-69409000D01*
X89261804Y-69409000D01*
X89386823Y-69421313D01*
X89386823Y-69421313D01*
G37*
G36*
X97006823Y-69421313D02*
G01*
X97167242Y-69469976D01*
X97299906Y-69540886D01*
X97315078Y-69548996D01*
X97444659Y-69655341D01*
X97551004Y-69784922D01*
X97551005Y-69784924D01*
X97630024Y-69932758D01*
X97678687Y-70093177D01*
X97695117Y-70260000D01*
X97678687Y-70426823D01*
X97630024Y-70587242D01*
X97559114Y-70719906D01*
X97551004Y-70735078D01*
X97444659Y-70864659D01*
X97315078Y-70971004D01*
X97315076Y-70971005D01*
X97167242Y-71050024D01*
X97006823Y-71098687D01*
X96881804Y-71111000D01*
X95998196Y-71111000D01*
X95873177Y-71098687D01*
X95712758Y-71050024D01*
X95564924Y-70971005D01*
X95564922Y-70971004D01*
X95435341Y-70864659D01*
X95328996Y-70735078D01*
X95320886Y-70719906D01*
X95249976Y-70587242D01*
X95201313Y-70426823D01*
X95184883Y-70260000D01*
X95201313Y-70093177D01*
X95249976Y-69932758D01*
X95328995Y-69784924D01*
X95328996Y-69784922D01*
X95435341Y-69655341D01*
X95564922Y-69548996D01*
X95580094Y-69540886D01*
X95712758Y-69469976D01*
X95873177Y-69421313D01*
X95998196Y-69409000D01*
X96881804Y-69409000D01*
X97006823Y-69421313D01*
X97006823Y-69421313D01*
G37*
G36*
X115416823Y-68291313D02*
G01*
X115577242Y-68339976D01*
X115644361Y-68375852D01*
X115725078Y-68418996D01*
X115854659Y-68525341D01*
X115961004Y-68654922D01*
X115961005Y-68654924D01*
X116040024Y-68802758D01*
X116088687Y-68963177D01*
X116105117Y-69130000D01*
X116088687Y-69296823D01*
X116040024Y-69457242D01*
X115999477Y-69533100D01*
X115961004Y-69605078D01*
X115854659Y-69734659D01*
X115725078Y-69841004D01*
X115725076Y-69841005D01*
X115577242Y-69920024D01*
X115416823Y-69968687D01*
X115291804Y-69981000D01*
X115208196Y-69981000D01*
X115083177Y-69968687D01*
X114922758Y-69920024D01*
X114774924Y-69841005D01*
X114774922Y-69841004D01*
X114645341Y-69734659D01*
X114538996Y-69605078D01*
X114500523Y-69533100D01*
X114459976Y-69457242D01*
X114411313Y-69296823D01*
X114394883Y-69130000D01*
X114411313Y-68963177D01*
X114459976Y-68802758D01*
X114538995Y-68654924D01*
X114538996Y-68654922D01*
X114645341Y-68525341D01*
X114774922Y-68418996D01*
X114855639Y-68375852D01*
X114922758Y-68339976D01*
X115083177Y-68291313D01*
X115208196Y-68279000D01*
X115291804Y-68279000D01*
X115416823Y-68291313D01*
X115416823Y-68291313D01*
G37*
G36*
X118648228Y-68311703D02*
G01*
X118803100Y-68375853D01*
X118942481Y-68468985D01*
X119061015Y-68587519D01*
X119154147Y-68726900D01*
X119218297Y-68881772D01*
X119251000Y-69046184D01*
X119251000Y-69213816D01*
X119218297Y-69378228D01*
X119154147Y-69533100D01*
X119061015Y-69672481D01*
X118942481Y-69791015D01*
X118803100Y-69884147D01*
X118648228Y-69948297D01*
X118483816Y-69981000D01*
X118316184Y-69981000D01*
X118151772Y-69948297D01*
X117996900Y-69884147D01*
X117857519Y-69791015D01*
X117738985Y-69672481D01*
X117645853Y-69533100D01*
X117581703Y-69378228D01*
X117549000Y-69213816D01*
X117549000Y-69046184D01*
X117581703Y-68881772D01*
X117645853Y-68726900D01*
X117738985Y-68587519D01*
X117857519Y-68468985D01*
X117996900Y-68375853D01*
X118151772Y-68311703D01*
X118316184Y-68279000D01*
X118483816Y-68279000D01*
X118648228Y-68311703D01*
X118648228Y-68311703D01*
G37*
G36*
X123648228Y-68311703D02*
G01*
X123803100Y-68375853D01*
X123942481Y-68468985D01*
X124061015Y-68587519D01*
X124154147Y-68726900D01*
X124218297Y-68881772D01*
X124251000Y-69046184D01*
X124251000Y-69213816D01*
X124218297Y-69378228D01*
X124154147Y-69533100D01*
X124061015Y-69672481D01*
X123942481Y-69791015D01*
X123803100Y-69884147D01*
X123648228Y-69948297D01*
X123483816Y-69981000D01*
X123316184Y-69981000D01*
X123151772Y-69948297D01*
X122996900Y-69884147D01*
X122857519Y-69791015D01*
X122738985Y-69672481D01*
X122645853Y-69533100D01*
X122581703Y-69378228D01*
X122549000Y-69213816D01*
X122549000Y-69046184D01*
X122581703Y-68881772D01*
X122645853Y-68726900D01*
X122738985Y-68587519D01*
X122857519Y-68468985D01*
X122996900Y-68375853D01*
X123151772Y-68311703D01*
X123316184Y-68279000D01*
X123483816Y-68279000D01*
X123648228Y-68311703D01*
X123648228Y-68311703D01*
G37*
G36*
X110418228Y-68311703D02*
G01*
X110573100Y-68375853D01*
X110712481Y-68468985D01*
X110831015Y-68587519D01*
X110924147Y-68726900D01*
X110988297Y-68881772D01*
X111021000Y-69046184D01*
X111021000Y-69213816D01*
X110988297Y-69378228D01*
X110924147Y-69533100D01*
X110831015Y-69672481D01*
X110712481Y-69791015D01*
X110573100Y-69884147D01*
X110418228Y-69948297D01*
X110253816Y-69981000D01*
X110086184Y-69981000D01*
X109921772Y-69948297D01*
X109766900Y-69884147D01*
X109627519Y-69791015D01*
X109508985Y-69672481D01*
X109415853Y-69533100D01*
X109351703Y-69378228D01*
X109319000Y-69213816D01*
X109319000Y-69046184D01*
X109351703Y-68881772D01*
X109415853Y-68726900D01*
X109508985Y-68587519D01*
X109627519Y-68468985D01*
X109766900Y-68375853D01*
X109921772Y-68311703D01*
X110086184Y-68279000D01*
X110253816Y-68279000D01*
X110418228Y-68311703D01*
X110418228Y-68311703D01*
G37*
G36*
X97006823Y-66881313D02*
G01*
X97167242Y-66929976D01*
X97263786Y-66981580D01*
X97315078Y-67008996D01*
X97444659Y-67115341D01*
X97551004Y-67244922D01*
X97551005Y-67244924D01*
X97630024Y-67392758D01*
X97678687Y-67553177D01*
X97695117Y-67720000D01*
X97678687Y-67886823D01*
X97630024Y-68047242D01*
X97559114Y-68179906D01*
X97551004Y-68195078D01*
X97444659Y-68324659D01*
X97315078Y-68431004D01*
X97315076Y-68431005D01*
X97167242Y-68510024D01*
X97006823Y-68558687D01*
X96881804Y-68571000D01*
X95998196Y-68571000D01*
X95873177Y-68558687D01*
X95712758Y-68510024D01*
X95564924Y-68431005D01*
X95564922Y-68431004D01*
X95435341Y-68324659D01*
X95328996Y-68195078D01*
X95320886Y-68179906D01*
X95249976Y-68047242D01*
X95201313Y-67886823D01*
X95184883Y-67720000D01*
X95201313Y-67553177D01*
X95249976Y-67392758D01*
X95328995Y-67244924D01*
X95328996Y-67244922D01*
X95435341Y-67115341D01*
X95564922Y-67008996D01*
X95616214Y-66981580D01*
X95712758Y-66929976D01*
X95873177Y-66881313D01*
X95998196Y-66869000D01*
X96881804Y-66869000D01*
X97006823Y-66881313D01*
X97006823Y-66881313D01*
G37*
G36*
X89386823Y-66881313D02*
G01*
X89547242Y-66929976D01*
X89643786Y-66981580D01*
X89695078Y-67008996D01*
X89824659Y-67115341D01*
X89931004Y-67244922D01*
X89931005Y-67244924D01*
X90010024Y-67392758D01*
X90058687Y-67553177D01*
X90075117Y-67720000D01*
X90058687Y-67886823D01*
X90010024Y-68047242D01*
X89939114Y-68179906D01*
X89931004Y-68195078D01*
X89824659Y-68324659D01*
X89695078Y-68431004D01*
X89695076Y-68431005D01*
X89547242Y-68510024D01*
X89386823Y-68558687D01*
X89261804Y-68571000D01*
X88378196Y-68571000D01*
X88253177Y-68558687D01*
X88092758Y-68510024D01*
X87944924Y-68431005D01*
X87944922Y-68431004D01*
X87815341Y-68324659D01*
X87708996Y-68195078D01*
X87700886Y-68179906D01*
X87629976Y-68047242D01*
X87581313Y-67886823D01*
X87564883Y-67720000D01*
X87581313Y-67553177D01*
X87629976Y-67392758D01*
X87708995Y-67244924D01*
X87708996Y-67244922D01*
X87815341Y-67115341D01*
X87944922Y-67008996D01*
X87996214Y-66981580D01*
X88092758Y-66929976D01*
X88253177Y-66881313D01*
X88378196Y-66869000D01*
X89261804Y-66869000D01*
X89386823Y-66881313D01*
X89386823Y-66881313D01*
G37*
G36*
X106013467Y-65575668D02*
G01*
X106029567Y-65577254D01*
X106115899Y-65603443D01*
X106202233Y-65629632D01*
X106361364Y-65714689D01*
X106500844Y-65829156D01*
X106615311Y-65968635D01*
X106700368Y-66127766D01*
X106752746Y-66300433D01*
X106766000Y-66435002D01*
X106766000Y-66824997D01*
X106761731Y-66868337D01*
X106752746Y-66959567D01*
X106737752Y-67008995D01*
X106700368Y-67132234D01*
X106615311Y-67291365D01*
X106500844Y-67430844D01*
X106361365Y-67545311D01*
X106202234Y-67630368D01*
X106115900Y-67656557D01*
X106029568Y-67682746D01*
X106013468Y-67684332D01*
X105850000Y-67700432D01*
X105686533Y-67684332D01*
X105670433Y-67682746D01*
X105584101Y-67656557D01*
X105497767Y-67630368D01*
X105338636Y-67545311D01*
X105199157Y-67430844D01*
X105084689Y-67291365D01*
X104999632Y-67132234D01*
X104955208Y-66985788D01*
X104947254Y-66959568D01*
X104938269Y-66868337D01*
X104934000Y-66824998D01*
X104934000Y-66435003D01*
X104947254Y-66300434D01*
X104947255Y-66300432D01*
X104999632Y-66127768D01*
X104999632Y-66127767D01*
X105084689Y-65968636D01*
X105199156Y-65829156D01*
X105338635Y-65714689D01*
X105497766Y-65629632D01*
X105584100Y-65603443D01*
X105670432Y-65577254D01*
X105686532Y-65575668D01*
X105850000Y-65559568D01*
X106013467Y-65575668D01*
X106013467Y-65575668D01*
G37*
G36*
X103473467Y-65575668D02*
G01*
X103489567Y-65577254D01*
X103575899Y-65603443D01*
X103662233Y-65629632D01*
X103821364Y-65714689D01*
X103960844Y-65829156D01*
X104075311Y-65968635D01*
X104160368Y-66127766D01*
X104212746Y-66300433D01*
X104226000Y-66435002D01*
X104226000Y-66824997D01*
X104221731Y-66868337D01*
X104212746Y-66959567D01*
X104197752Y-67008995D01*
X104160368Y-67132234D01*
X104075311Y-67291365D01*
X103960844Y-67430844D01*
X103821365Y-67545311D01*
X103662234Y-67630368D01*
X103575900Y-67656557D01*
X103489568Y-67682746D01*
X103473468Y-67684332D01*
X103310000Y-67700432D01*
X103146533Y-67684332D01*
X103130433Y-67682746D01*
X103044101Y-67656557D01*
X102957767Y-67630368D01*
X102798636Y-67545311D01*
X102659157Y-67430844D01*
X102544689Y-67291365D01*
X102459632Y-67132234D01*
X102415208Y-66985788D01*
X102407254Y-66959568D01*
X102398269Y-66868337D01*
X102394000Y-66824998D01*
X102394000Y-66435003D01*
X102407254Y-66300434D01*
X102407255Y-66300432D01*
X102459632Y-66127768D01*
X102459632Y-66127767D01*
X102544689Y-65968636D01*
X102659156Y-65829156D01*
X102798635Y-65714689D01*
X102957766Y-65629632D01*
X103044100Y-65603443D01*
X103130432Y-65577254D01*
X103146532Y-65575668D01*
X103310000Y-65559568D01*
X103473467Y-65575668D01*
X103473467Y-65575668D01*
G37*
G36*
X101686000Y-67696000D02*
G01*
X99854000Y-67696000D01*
X99854000Y-65564000D01*
X101686000Y-65564000D01*
X101686000Y-67696000D01*
X101686000Y-67696000D01*
G37*
G36*
X78327617Y-65098420D02*
G01*
X78408399Y-65122925D01*
X78450335Y-65135646D01*
X78563424Y-65196094D01*
X78662554Y-65277447D01*
X78743906Y-65376575D01*
X78804354Y-65489664D01*
X78809685Y-65507239D01*
X78841580Y-65612382D01*
X78851000Y-65708027D01*
X78851000Y-66371973D01*
X78841580Y-66467618D01*
X78814040Y-66558404D01*
X78804354Y-66590336D01*
X78743906Y-66703425D01*
X78662554Y-66802554D01*
X78563425Y-66883906D01*
X78450336Y-66944354D01*
X78418404Y-66954040D01*
X78327618Y-66981580D01*
X78200000Y-66994149D01*
X78072383Y-66981580D01*
X77981597Y-66954040D01*
X77949665Y-66944354D01*
X77836576Y-66883906D01*
X77737447Y-66802554D01*
X77656096Y-66703427D01*
X77595645Y-66590333D01*
X77583237Y-66549427D01*
X77558420Y-66467618D01*
X77549000Y-66371973D01*
X77549000Y-65708028D01*
X77558420Y-65612383D01*
X77595645Y-65489669D01*
X77595646Y-65489665D01*
X77656094Y-65376576D01*
X77737447Y-65277446D01*
X77836575Y-65196094D01*
X77949664Y-65135646D01*
X77991600Y-65122925D01*
X78072382Y-65098420D01*
X78200000Y-65085851D01*
X78327617Y-65098420D01*
X78327617Y-65098420D01*
G37*
G36*
X82327617Y-65098420D02*
G01*
X82408399Y-65122925D01*
X82450335Y-65135646D01*
X82563424Y-65196094D01*
X82662554Y-65277447D01*
X82743906Y-65376575D01*
X82804354Y-65489664D01*
X82809685Y-65507239D01*
X82841580Y-65612382D01*
X82851000Y-65708027D01*
X82851000Y-66371973D01*
X82841580Y-66467618D01*
X82814040Y-66558404D01*
X82804354Y-66590336D01*
X82743906Y-66703425D01*
X82662554Y-66802554D01*
X82563425Y-66883906D01*
X82450336Y-66944354D01*
X82418404Y-66954040D01*
X82327618Y-66981580D01*
X82200000Y-66994149D01*
X82072383Y-66981580D01*
X81981597Y-66954040D01*
X81949665Y-66944354D01*
X81836576Y-66883906D01*
X81737447Y-66802554D01*
X81656096Y-66703427D01*
X81595645Y-66590333D01*
X81583237Y-66549427D01*
X81558420Y-66467618D01*
X81549000Y-66371973D01*
X81549000Y-65708028D01*
X81558420Y-65612383D01*
X81595645Y-65489669D01*
X81595646Y-65489665D01*
X81656094Y-65376576D01*
X81737447Y-65277446D01*
X81836575Y-65196094D01*
X81949664Y-65135646D01*
X81991600Y-65122925D01*
X82072382Y-65098420D01*
X82200000Y-65085851D01*
X82327617Y-65098420D01*
X82327617Y-65098420D01*
G37*
G36*
X80327617Y-65098420D02*
G01*
X80408399Y-65122925D01*
X80450335Y-65135646D01*
X80563424Y-65196094D01*
X80662554Y-65277447D01*
X80743906Y-65376575D01*
X80804354Y-65489664D01*
X80809685Y-65507239D01*
X80841580Y-65612382D01*
X80851000Y-65708027D01*
X80851000Y-66371973D01*
X80841580Y-66467618D01*
X80814040Y-66558404D01*
X80804354Y-66590336D01*
X80743906Y-66703425D01*
X80662554Y-66802554D01*
X80563425Y-66883906D01*
X80450336Y-66944354D01*
X80418404Y-66954040D01*
X80327618Y-66981580D01*
X80200000Y-66994149D01*
X80072383Y-66981580D01*
X79981597Y-66954040D01*
X79949665Y-66944354D01*
X79836576Y-66883906D01*
X79737447Y-66802554D01*
X79656096Y-66703427D01*
X79595645Y-66590333D01*
X79583237Y-66549427D01*
X79558420Y-66467618D01*
X79549000Y-66371973D01*
X79549000Y-65708028D01*
X79558420Y-65612383D01*
X79595645Y-65489669D01*
X79595646Y-65489665D01*
X79656094Y-65376576D01*
X79737447Y-65277446D01*
X79836575Y-65196094D01*
X79949664Y-65135646D01*
X79991600Y-65122925D01*
X80072382Y-65098420D01*
X80200000Y-65085851D01*
X80327617Y-65098420D01*
X80327617Y-65098420D01*
G37*
G36*
X76691242Y-65093404D02*
G01*
X76728337Y-65104657D01*
X76762515Y-65122925D01*
X76792481Y-65147519D01*
X76817075Y-65177485D01*
X76835343Y-65211663D01*
X76846596Y-65248758D01*
X76851000Y-65293474D01*
X76851000Y-66786526D01*
X76846596Y-66831242D01*
X76835343Y-66868337D01*
X76817075Y-66902515D01*
X76792481Y-66932481D01*
X76762515Y-66957075D01*
X76728337Y-66975343D01*
X76691242Y-66986596D01*
X76646526Y-66991000D01*
X75753474Y-66991000D01*
X75708758Y-66986596D01*
X75671663Y-66975343D01*
X75637485Y-66957075D01*
X75607519Y-66932481D01*
X75582925Y-66902515D01*
X75564657Y-66868337D01*
X75553404Y-66831242D01*
X75549000Y-66786526D01*
X75549000Y-65293474D01*
X75553404Y-65248758D01*
X75564657Y-65211663D01*
X75582925Y-65177485D01*
X75607519Y-65147519D01*
X75637485Y-65122925D01*
X75671663Y-65104657D01*
X75708758Y-65093404D01*
X75753474Y-65089000D01*
X76646526Y-65089000D01*
X76691242Y-65093404D01*
X76691242Y-65093404D01*
G37*
G36*
X97006823Y-64341313D02*
G01*
X97167242Y-64389976D01*
X97299906Y-64460886D01*
X97315078Y-64468996D01*
X97444659Y-64575341D01*
X97551004Y-64704922D01*
X97551005Y-64704924D01*
X97630024Y-64852758D01*
X97678687Y-65013177D01*
X97695117Y-65180000D01*
X97678687Y-65346823D01*
X97630024Y-65507242D01*
X97573825Y-65612382D01*
X97551004Y-65655078D01*
X97444659Y-65784659D01*
X97315078Y-65891004D01*
X97315076Y-65891005D01*
X97167242Y-65970024D01*
X97006823Y-66018687D01*
X96881804Y-66031000D01*
X95998196Y-66031000D01*
X95873177Y-66018687D01*
X95712758Y-65970024D01*
X95564924Y-65891005D01*
X95564922Y-65891004D01*
X95435341Y-65784659D01*
X95328996Y-65655078D01*
X95306175Y-65612382D01*
X95249976Y-65507242D01*
X95201313Y-65346823D01*
X95184883Y-65180000D01*
X95201313Y-65013177D01*
X95249976Y-64852758D01*
X95328995Y-64704924D01*
X95328996Y-64704922D01*
X95435341Y-64575341D01*
X95564922Y-64468996D01*
X95580094Y-64460886D01*
X95712758Y-64389976D01*
X95873177Y-64341313D01*
X95998196Y-64329000D01*
X96881804Y-64329000D01*
X97006823Y-64341313D01*
X97006823Y-64341313D01*
G37*
G36*
X90071000Y-66031000D02*
G01*
X87569000Y-66031000D01*
X87569000Y-64329000D01*
X90071000Y-64329000D01*
X90071000Y-66031000D01*
X90071000Y-66031000D01*
G37*
G36*
X110418228Y-64261703D02*
G01*
X110573100Y-64325853D01*
X110712481Y-64418985D01*
X110831015Y-64537519D01*
X110924147Y-64676900D01*
X110988297Y-64831772D01*
X111021000Y-64996184D01*
X111021000Y-65163816D01*
X110988297Y-65328228D01*
X110924147Y-65483100D01*
X110831015Y-65622481D01*
X110712481Y-65741015D01*
X110573100Y-65834147D01*
X110418228Y-65898297D01*
X110253816Y-65931000D01*
X110086184Y-65931000D01*
X109921772Y-65898297D01*
X109766900Y-65834147D01*
X109627519Y-65741015D01*
X109508985Y-65622481D01*
X109415853Y-65483100D01*
X109351703Y-65328228D01*
X109319000Y-65163816D01*
X109319000Y-64996184D01*
X109351703Y-64831772D01*
X109415853Y-64676900D01*
X109508985Y-64537519D01*
X109627519Y-64418985D01*
X109766900Y-64325853D01*
X109921772Y-64261703D01*
X110086184Y-64229000D01*
X110253816Y-64229000D01*
X110418228Y-64261703D01*
X110418228Y-64261703D01*
G37*
G36*
X124096823Y-64241313D02*
G01*
X124257242Y-64289976D01*
X124389906Y-64360886D01*
X124405078Y-64368996D01*
X124534659Y-64475341D01*
X124641004Y-64604922D01*
X124641005Y-64604924D01*
X124720024Y-64752758D01*
X124768687Y-64913177D01*
X124785117Y-65080000D01*
X124768687Y-65246823D01*
X124720024Y-65407242D01*
X124679477Y-65483100D01*
X124641004Y-65555078D01*
X124534659Y-65684659D01*
X124405078Y-65791004D01*
X124405076Y-65791005D01*
X124257242Y-65870024D01*
X124096823Y-65918687D01*
X123971804Y-65931000D01*
X123888196Y-65931000D01*
X123763177Y-65918687D01*
X123602758Y-65870024D01*
X123454924Y-65791005D01*
X123454922Y-65791004D01*
X123325341Y-65684659D01*
X123218996Y-65555078D01*
X123180523Y-65483100D01*
X123139976Y-65407242D01*
X123091313Y-65246823D01*
X123074883Y-65080000D01*
X123091313Y-64913177D01*
X123139976Y-64752758D01*
X123218995Y-64604924D01*
X123218996Y-64604922D01*
X123325341Y-64475341D01*
X123454922Y-64368996D01*
X123470094Y-64360886D01*
X123602758Y-64289976D01*
X123763177Y-64241313D01*
X123888196Y-64229000D01*
X123971804Y-64229000D01*
X124096823Y-64241313D01*
X124096823Y-64241313D01*
G37*
G36*
X119098228Y-64261703D02*
G01*
X119253100Y-64325853D01*
X119392481Y-64418985D01*
X119511015Y-64537519D01*
X119604147Y-64676900D01*
X119668297Y-64831772D01*
X119701000Y-64996184D01*
X119701000Y-65163816D01*
X119668297Y-65328228D01*
X119604147Y-65483100D01*
X119511015Y-65622481D01*
X119392481Y-65741015D01*
X119253100Y-65834147D01*
X119098228Y-65898297D01*
X118933816Y-65931000D01*
X118766184Y-65931000D01*
X118601772Y-65898297D01*
X118446900Y-65834147D01*
X118307519Y-65741015D01*
X118188985Y-65622481D01*
X118095853Y-65483100D01*
X118031703Y-65328228D01*
X117999000Y-65163816D01*
X117999000Y-64996184D01*
X118031703Y-64831772D01*
X118095853Y-64676900D01*
X118188985Y-64537519D01*
X118307519Y-64418985D01*
X118446900Y-64325853D01*
X118601772Y-64261703D01*
X118766184Y-64229000D01*
X118933816Y-64229000D01*
X119098228Y-64261703D01*
X119098228Y-64261703D01*
G37*
G36*
X115416823Y-64241313D02*
G01*
X115577242Y-64289976D01*
X115709906Y-64360886D01*
X115725078Y-64368996D01*
X115854659Y-64475341D01*
X115961004Y-64604922D01*
X115961005Y-64604924D01*
X116040024Y-64752758D01*
X116088687Y-64913177D01*
X116105117Y-65080000D01*
X116088687Y-65246823D01*
X116040024Y-65407242D01*
X115999477Y-65483100D01*
X115961004Y-65555078D01*
X115854659Y-65684659D01*
X115725078Y-65791004D01*
X115725076Y-65791005D01*
X115577242Y-65870024D01*
X115416823Y-65918687D01*
X115291804Y-65931000D01*
X115208196Y-65931000D01*
X115083177Y-65918687D01*
X114922758Y-65870024D01*
X114774924Y-65791005D01*
X114774922Y-65791004D01*
X114645341Y-65684659D01*
X114538996Y-65555078D01*
X114500523Y-65483100D01*
X114459976Y-65407242D01*
X114411313Y-65246823D01*
X114394883Y-65080000D01*
X114411313Y-64913177D01*
X114459976Y-64752758D01*
X114538995Y-64604924D01*
X114538996Y-64604922D01*
X114645341Y-64475341D01*
X114774922Y-64368996D01*
X114790094Y-64360886D01*
X114922758Y-64289976D01*
X115083177Y-64241313D01*
X115208196Y-64229000D01*
X115291804Y-64229000D01*
X115416823Y-64241313D01*
X115416823Y-64241313D01*
G37*
M02*
